<svg width="361" height="361" viewBox="0 0 361 361" fill="none" xmlns="http://www.w3.org/2000/svg">
<g clip-path="url(#clip0_129_37)">
<path d="M276.391 0H84.6094C37.8809 0 0 37.8809 0 84.6094V276.391C0 323.119 37.8809 361 84.6094 361H276.391C323.119 361 361 323.119 361 276.391V84.6094C361 37.8809 323.119 0 276.391 0Z" fill="#00005B"/>
<path d="M148.288 220.154H92.3328L80.9007 255.651C80.6003 257.005 79.3975 257.908 78.0437 257.758H49.7645C48.1104 257.758 47.6591 256.856 48.1104 255.051L96.545 116.215C96.9962 114.712 97.4475 113.358 98.0482 111.553C98.6503 108.394 98.9507 105.085 98.9507 101.775C98.8012 101.024 99.402 100.272 100.154 100.121H139.112C140.165 100.121 140.917 100.572 141.068 101.324L195.969 254.749C196.421 256.404 195.969 257.156 194.466 257.156H163.028C161.976 257.307 160.923 256.554 160.622 255.502L148.288 219.402V220.154ZM101.057 190.22H139.263C138.36 187.061 137.156 183.302 135.802 179.39C134.449 175.329 133.095 170.967 131.741 166.455C130.238 161.791 128.884 157.279 127.379 152.617C125.875 147.955 124.522 143.592 123.318 139.229C122.115 135.018 121.062 131.106 120.009 127.496H119.708C118.354 133.965 116.7 140.433 114.594 146.9C112.337 154.12 110.081 161.642 107.675 169.162C105.719 176.834 103.312 183.903 101.057 190.22ZM284.565 206.616H236.884C237.484 211.279 238.989 215.941 241.546 220.003C244.253 224.064 248.014 227.223 252.527 229.028C258.544 231.586 265.162 232.939 271.779 232.789C277.045 232.638 282.309 232.186 287.424 231.134C292.011 230.534 296.507 229.372 300.81 227.674C301.562 227.073 302.013 227.374 302.013 228.878V251.892C302.013 252.493 301.864 253.095 301.713 253.697C301.412 254.148 301.111 254.449 300.659 254.749C295.849 256.862 290.798 258.377 285.619 259.261C278.583 260.615 271.423 261.22 264.259 261.066C252.827 261.066 243.201 259.261 235.379 255.802C228.008 252.644 221.541 247.68 216.427 241.513C211.664 235.718 208.133 229.013 206.048 221.808C203.942 214.739 202.889 207.368 202.889 199.847C202.889 191.725 204.092 183.753 206.65 175.931C209.048 168.4 212.878 161.402 217.931 155.324C222.895 149.307 229.062 144.494 236.131 141.034C243.201 137.575 251.624 136.372 261.251 136.372C269.223 136.221 277.194 137.726 284.565 141.034C290.732 143.741 296.147 147.803 300.359 153.068C304.269 158.181 307.428 163.898 309.384 170.216C311.34 176.231 312.242 182.399 312.242 188.566C312.242 192.176 312.092 195.335 311.941 198.193C311.64 201.05 311.489 203.157 311.34 204.511C311.189 205.563 310.287 206.465 309.233 206.465C308.331 206.465 306.677 206.616 304.269 206.767C301.864 207.067 299.005 207.218 295.546 207.218C292.086 207.218 288.476 206.616 284.565 206.616ZM236.884 184.656H268.621C272.532 184.656 275.389 184.656 277.194 184.505C278.399 184.354 279.602 184.054 280.655 183.302V181.797C280.66 179.905 280.355 178.025 279.752 176.231C277.045 167.809 269.072 162.093 260.198 162.394C256.116 162.165 252.054 163.123 248.504 165.151C244.954 167.18 242.067 170.193 240.192 173.826C238.387 177.285 237.335 180.895 236.884 184.656Z" fill="#9999FF"/>
</g>
<defs>
<clipPath id="clip0_129_37">
<rect width="361" height="361" fill="white"/>
</clipPath>
</defs>
</svg>
