<svg width="361" height="361" viewBox="0 0 361 361" fill="none" xmlns="http://www.w3.org/2000/svg">
<path d="M227.317 113.658H228.445L227.881 113.094L267.366 73.61V72.764C234.086 43.4327 188.115 33.2796 145.528 45.971C102.941 58.6624 70.2257 92.5061 58.3804 135.375C58.9444 135.093 59.7905 134.811 60.6366 134.811C75.3022 125.222 92.7882 119.581 111.12 119.581C117.325 119.581 123.248 120.145 129.17 121.273C129.452 120.991 129.734 120.991 130.016 120.991C155.399 93.0702 198.268 89.6858 227.599 113.658H227.317Z" fill="#EA4535"/>
<path d="M304.876 134.811C298.389 110.838 284.852 89.1218 265.956 72.4819L225.625 112.53C242.547 126.35 252.418 147.22 251.854 168.937V175.987C299.517 175.987 299.517 247.059 251.854 247.059H180.218V303.466H179.936L180.218 304.03H251.854C293.031 304.312 329.413 277.801 341.54 238.88C353.667 199.96 338.72 157.655 304.876 134.811Z" fill="#557EBF"/>
<path d="M109.992 304.312H184.166V247.341H109.992C104.633 247.341 99.5568 246.213 94.7623 244.239L51.8936 285.416V285.98C68.8154 298.107 89.1217 304.594 110.274 304.594L109.992 304.312Z" fill="#36A852"/>
<path d="M113.377 118.171C71.3541 118.453 34.126 144.4 20.5885 182.474C7.051 220.831 20.5885 262.853 53.8682 287.672L97.8651 245.649C73.6104 235.214 67.9697 204.755 86.5838 186.987C105.198 168.937 136.785 174.577 147.785 197.704L191.781 155.681C173.167 132.273 144.118 118.453 113.377 118.735V118.171Z" fill="#F9BC15"/>
</svg>
