<svg width="324" height="361" viewBox="0 0 324 361" fill="none" xmlns="http://www.w3.org/2000/svg">
<g clip-path="url(#clip0_547_35)">
<path d="M0.00732426 113.183V246.913C0.00732426 263.455 8.82454 278.757 23.1495 287.023L138.859 353.895C145.895 357.962 153.876 360.104 162.001 360.104C170.125 360.104 178.107 357.962 185.142 353.895L300.852 287.023C307.888 282.959 313.731 277.112 317.793 270.071C321.855 263.03 323.993 255.042 323.993 246.911V113.184C323.994 105.053 321.857 97.0638 317.794 90.0214C313.732 82.979 307.889 77.1313 300.852 73.0665L185.141 6.21185C178.106 2.14376 170.125 0.00195312 162 0.00195312C153.875 0.00195312 145.894 2.14376 138.859 6.21185L23.1482 73.0665C16.1122 77.1323 10.2696 82.9802 6.20746 90.0223C2.14536 97.0645 0.00700191 105.052 0.00732426 113.183Z" fill="url(#paint0_linear_547_35)"/>
<path d="M81.0076 156.905V203.233C81.0051 204.755 81.3028 206.262 81.8835 207.669C82.4643 209.075 83.3167 210.353 84.3919 211.429C85.4671 212.506 86.744 213.359 88.1493 213.94C89.5546 214.521 91.0607 214.819 92.5812 214.817C94.1014 214.817 95.6067 214.518 97.0113 213.937C98.4158 213.355 99.692 212.501 100.767 211.426C101.842 210.35 102.694 209.073 103.276 207.667C103.857 206.261 104.156 204.754 104.155 203.233C104.155 200.162 105.374 197.216 107.544 195.044C109.714 192.873 112.657 191.652 115.725 191.652C118.794 191.652 121.737 192.873 123.907 195.044C126.077 197.216 127.296 200.162 127.296 203.233C127.296 222.422 111.755 237.978 92.5812 237.978C73.4079 237.978 57.8667 222.422 57.8667 203.233V156.911C57.8667 137.721 73.4079 122.166 92.5812 122.166C111.755 122.166 127.296 137.721 127.296 156.911C127.296 159.982 126.077 162.928 123.907 165.1C121.737 167.271 118.794 168.491 115.725 168.491C112.657 168.491 109.714 167.271 107.544 165.1C105.374 162.928 104.155 159.982 104.155 156.911C104.155 153.84 102.936 150.894 100.766 148.722C98.5961 146.551 95.6531 145.33 92.5844 145.33C89.5157 145.33 86.5727 146.551 84.4029 148.722C82.233 150.894 81.014 153.84 81.014 156.911L81.0076 156.905ZM266.148 203.233C266.149 204.755 265.851 206.262 265.27 207.668C264.689 209.075 263.837 210.352 262.761 211.428C261.686 212.504 260.409 213.358 259.004 213.939C257.599 214.52 256.093 214.819 254.573 214.817H242.999V226.394C242.999 229.468 241.784 232.414 239.61 234.584C238.537 235.662 237.262 236.517 235.858 237.101C234.455 237.684 232.949 237.985 231.429 237.985C229.909 237.985 228.404 237.684 227 237.101C225.596 236.517 224.321 235.662 223.249 234.584C221.081 232.41 219.862 229.464 219.858 226.393V214.815H196.719V226.393C196.722 227.915 196.425 229.423 195.845 230.83C195.265 232.238 194.412 233.516 193.337 234.593C192.261 235.669 190.983 236.522 189.578 237.103C188.172 237.684 186.665 237.981 185.144 237.978C183.623 237.98 182.117 237.682 180.712 237.101C179.307 236.52 178.03 235.666 176.956 234.59C175.881 233.514 175.029 232.235 174.449 230.829C173.869 229.422 173.573 227.914 173.576 226.393V214.815H161.996C158.928 214.815 155.985 213.595 153.815 211.424C151.646 209.252 150.427 206.307 150.427 203.235C150.427 200.164 151.646 197.219 153.815 195.047C155.985 192.876 158.928 191.656 161.996 191.656H173.57V168.495H161.996C158.928 168.495 155.985 167.275 153.815 165.103C151.645 162.931 150.426 159.985 150.426 156.914C150.426 153.843 151.645 150.897 153.815 148.725C155.985 146.554 158.928 145.334 161.996 145.334H173.57V133.75C173.57 130.679 174.789 127.733 176.959 125.561C179.129 123.39 182.072 122.169 185.14 122.169C188.209 122.169 191.152 123.39 193.322 125.561C195.492 127.733 196.711 130.679 196.711 133.75V145.327H219.852V133.75C219.852 130.679 221.071 127.733 223.241 125.561C225.411 123.39 228.354 122.169 231.422 122.169C234.491 122.169 237.434 123.39 239.604 125.561C241.774 127.733 242.993 130.679 242.993 133.75V145.327H254.566C256.085 145.326 257.589 145.626 258.993 146.208C260.396 146.79 261.67 147.643 262.743 148.719C263.82 149.793 264.675 151.069 265.258 152.474C265.841 153.879 266.141 155.386 266.141 156.907C266.141 158.429 265.841 159.935 265.258 161.34C264.675 162.745 263.82 164.021 262.743 165.095C261.671 166.172 260.397 167.026 258.994 167.61C257.591 168.193 256.087 168.494 254.568 168.495H242.993V191.656H254.566C257.633 191.663 260.571 192.884 262.74 195.054C264.909 197.223 266.131 200.164 266.14 203.233H266.148ZM219.858 168.495H196.719V191.656H219.858V168.495Z" fill="white"/>
</g>
<defs>
<linearGradient id="paint0_linear_547_35" x1="5643.84" y1="7871.83" x2="20551" y2="33798.9" gradientUnits="userSpaceOnUse">
<stop stop-color="#927BE5"/>
<stop offset="1" stop-color="#512BD4"/>
</linearGradient>
<clipPath id="clip0_547_35">
<rect width="324" height="361" fill="white"/>
</clipPath>
</defs>
</svg>
