<svg width="361" height="361" viewBox="0 0 361 361" fill="none" xmlns="http://www.w3.org/2000/svg">
<path d="M189.863 22.5625C185.993 22.5609 182.278 24.0897 179.53 26.8156L179.383 26.9284L82.6125 82.8044L179.135 179.259V179.316L295.14 295.253L317.251 255.441L237.515 64.1114L200.299 26.9171C198.931 25.5341 197.302 24.4369 195.507 23.6893C193.712 22.9417 191.786 22.5587 189.841 22.5625H189.863Z" fill="#4FC3F7"/>
<path d="M82.8383 82.5789L26.9397 179.203L26.8269 179.349C25.4699 180.711 24.3946 182.327 23.6623 184.105C22.9301 185.882 22.5554 187.787 22.5596 189.709C22.5638 191.632 22.9468 193.535 23.6868 195.309C24.4267 197.083 25.5091 198.695 26.872 200.051L26.9285 200.107L73.2493 246.439L254.471 317.669L295.445 294.937L294.339 293.832L294.057 293.854L180.444 180.162H180.308L82.8383 82.5789Z" fill="#01579B"/>
<path d="M82.5901 82.6238L181.335 181.391H181.482L295.118 295.072L338.381 286.837L338.438 158.941L292.76 114.211C281.378 104.051 267.11 97.6939 251.944 96.0259L251.967 95.5408L82.6126 82.6351L82.5901 82.6238Z" fill="#01579B"/>
<path d="M82.7141 82.748L181.515 181.459V181.606L295.219 295.219L286.95 338.438H158.953L114.2 292.771C104.044 281.388 97.6908 267.12 96.026 251.956L95.5183 252.001L82.7141 82.748Z" fill="#64B5F6"/>
</svg>
