<svg width="361" height="361" viewBox="0 0 361 361" fill="none" xmlns="http://www.w3.org/2000/svg">
<path d="M328.059 154.177C327.156 153.576 319.635 147.709 303.39 147.709C299.179 147.709 294.967 148.161 290.755 148.913C287.597 127.854 269.998 117.175 269.246 116.723L264.884 114.166L262.176 118.228C258.566 123.643 255.708 129.81 254.505 136.127C251.497 148.161 253.302 159.592 259.469 169.369C252.098 173.581 240.065 174.634 237.508 174.634H39.4091C34.2949 174.634 30.0833 178.846 30.0833 184.11C30.0833 201.408 32.7908 218.706 38.8074 234.951C45.5762 252.851 55.8045 266.087 68.8908 274.21C83.6316 283.235 107.849 288.349 135.375 288.349C147.258 288.349 159.592 287.296 171.776 285.04C188.622 282.031 204.867 276.165 219.759 267.591C232.091 260.539 243.13 251.433 252.399 240.667C268.193 223.068 277.519 203.063 284.287 185.765H287.145C304.293 185.765 314.972 178.846 320.839 172.979C324.75 169.369 327.607 165.007 329.713 159.893L330.917 156.283L328.059 154.177ZM57.9103 169.068H84.3837C85.587 169.068 86.7903 168.016 86.7903 166.662V142.896C86.7903 141.693 85.7374 140.489 84.3837 140.489H57.9103C56.5566 140.489 55.5037 141.542 55.5037 142.896V166.662C55.6541 168.016 56.5566 169.068 57.9103 169.068ZM94.4616 169.068H120.935C122.138 169.068 123.342 168.016 123.342 166.662V142.896C123.342 141.693 122.289 140.489 120.935 140.489H94.4616C93.1078 140.489 92.0549 141.542 92.0549 142.896V166.662C92.2053 168.016 93.1078 169.068 94.4616 169.068ZM131.615 169.068H157.937C159.442 169.068 160.495 168.016 160.495 166.662V142.896C160.495 141.693 159.592 140.489 157.937 140.489H131.615C130.411 140.489 129.358 141.542 129.358 142.896V166.662C129.358 168.016 130.261 169.068 131.615 169.068ZM168.316 169.068H194.94C196.143 169.068 197.196 168.016 197.196 166.662V142.896C197.196 141.693 196.294 140.489 194.94 140.489H168.316C167.113 140.489 166.06 141.542 166.06 142.896V166.662C166.06 168.016 167.113 169.068 168.316 169.068ZM94.4616 135.375H120.935C122.138 135.375 123.342 134.021 123.342 132.668V109.052C123.342 107.698 122.289 106.646 120.935 106.646H94.4616C93.1078 106.646 92.0549 107.548 92.0549 109.052V132.668C92.2053 134.021 93.1078 135.375 94.4616 135.375ZM131.615 135.375H157.937C159.442 135.375 160.495 134.021 160.495 132.668V109.052C160.495 107.698 159.592 106.646 157.937 106.646H131.615C130.411 106.646 129.358 107.548 129.358 109.052V132.668C129.358 134.021 130.261 135.375 131.615 135.375ZM168.316 135.375H194.94C196.143 135.375 197.196 134.021 197.196 132.668V109.052C197.196 107.698 196.143 106.646 194.94 106.646H168.316C167.113 106.646 166.06 107.548 166.06 109.052V132.668C166.06 134.021 167.113 135.375 168.316 135.375ZM168.316 101.08H194.94C196.143 101.08 197.196 100.027 197.196 98.6735V75.2085C197.196 73.7043 196.143 72.6514 194.94 72.6514H168.316C167.113 72.6514 166.06 73.5539 166.06 75.2085V98.6735C166.06 99.8768 167.113 101.08 168.316 101.08ZM205.319 169.068H231.792C233.146 169.068 234.199 168.016 234.199 166.662V142.896C234.199 141.693 233.146 140.489 231.792 140.489H205.319C204.115 140.489 203.062 141.542 203.062 142.896V166.662C203.062 168.016 204.115 169.068 205.319 169.068Z" fill="#0288D1"/>
</svg>
