<svg width="361" height="361" viewBox="0 0 361 361" fill="none" xmlns="http://www.w3.org/2000/svg">
<path d="M148.912 102.377C145.81 98.993 142.99 95.8906 140.169 92.7883C130.016 81.7891 119.863 70.7898 109.992 59.7906C104.633 54.15 100.967 47.3812 100.121 39.7664C98.9929 30.4594 100.403 21.1523 106.608 13.8195C108.018 11.8453 110.274 10.4351 112.248 9.02499C115.351 7.33281 118.453 5.64062 121.837 4.51249C133.401 0.846086 144.682 2.25624 154.271 10.1531C159.63 14.3836 164.142 19.4601 168.937 24.5367L238.316 100.121C250.444 113.377 262.853 126.35 274.698 140.17C289.646 157.091 301.209 176.27 307.132 198.268C309.388 206.729 310.798 214.908 311.08 223.651C312.491 258.341 302.055 288.8 280.339 315.593C264.263 335.335 243.675 348.309 218.856 354.795C210.113 357.052 201.088 358.744 192.063 359.026C185.294 359.308 178.526 359.59 171.757 359.308C137.067 357.334 107.736 343.796 84.0452 318.131C72.764 306.004 63.739 292.748 57.8163 277.237C54.1499 267.93 51.8937 258.059 51.0476 248.188C49.3554 224.215 52.1757 201.088 62.6108 179.372C69.0976 165.27 78.9687 153.707 89.9679 142.99C106.608 126.914 125.786 114.223 146.656 104.634C147.502 104.352 148.066 104.07 148.912 103.505C148.348 102.941 148.63 102.659 148.912 102.377ZM186.705 254.11L185.012 255.802C177.116 263.699 169.219 271.314 161.604 279.211C156.527 284.288 152.015 289.928 148.912 296.415C146.656 300.927 145.81 305.44 147.502 310.234C152.015 323.772 169.219 328.848 179.936 321.516C183.884 318.695 187.833 315.311 191.217 311.927C208.139 296.133 224.779 280.339 241.419 264.545C249.598 256.93 256.084 247.905 260.033 237.47C260.879 235.496 261.161 232.958 261.161 230.702C261.161 226.189 259.187 221.959 256.93 217.728C252.982 210.395 247.341 203.909 241.419 197.986L214.062 170.347C205.319 161.604 196.858 152.579 187.833 144.118C182.474 139.041 175.705 135.657 167.808 135.939C159.348 136.503 152.579 139.887 148.066 147.22C146.374 150.041 145.246 153.425 145.528 156.809C145.81 163.86 149.194 169.783 153.989 174.859C161.886 183.038 169.783 190.653 177.962 198.55C181.064 201.652 183.884 204.755 186.423 207.575H130.58C122.683 207.575 114.505 207.293 106.608 207.857C101.813 208.139 97.3007 209.831 93.6343 213.216C86.8655 219.702 84.8913 227.881 86.5835 236.906C88.2757 245.367 93.0702 251.29 101.813 253.264C104.916 253.828 108.018 254.11 111.402 254.11L137.913 254.956C144.682 254.956 151.451 254.674 158.501 254.674H174.577C178.526 254.11 182.474 254.11 186.705 254.11Z" fill="#F56D39"/>
<path d="M186.705 254.11H158.784C152.015 254.11 145.246 254.392 138.195 254.392C129.452 254.392 120.427 254.11 111.684 253.546C108.582 253.546 105.198 253.264 102.095 252.7C93.3523 250.726 88.2757 244.803 86.8656 236.342C85.1734 227.317 87.1476 219.138 93.9163 212.651C97.5827 209.267 102.095 207.575 106.89 207.293C114.787 207.011 122.966 207.011 130.862 207.011H186.705C183.884 204.191 181.064 201.088 178.244 197.986C170.347 190.089 162.168 182.474 154.271 174.295C149.476 169.219 146.374 163.296 145.81 156.245C145.528 152.861 146.656 149.758 148.348 146.656C152.861 139.323 159.63 135.939 168.091 135.375C175.987 134.811 182.474 138.195 188.115 143.554C197.14 152.015 205.601 161.04 214.344 169.783C223.651 179.09 232.676 188.115 241.701 197.422C247.623 203.344 252.982 209.831 257.212 217.164C259.469 221.112 261.161 225.343 261.443 230.137C261.443 232.394 261.161 234.65 260.315 236.906C256.366 247.341 249.88 256.366 241.701 263.981L191.499 311.362C187.833 314.747 184.166 318.131 180.218 320.951C169.783 328.284 152.579 323.208 147.784 309.67C146.092 305.158 146.938 300.363 149.194 295.851C152.297 289.364 156.809 283.723 161.886 278.647C169.501 270.75 177.398 263.135 185.294 255.238L186.705 254.11Z" fill="white"/>
</svg>
