<svg width="361" height="361" viewBox="0 0 361 361" fill="none" xmlns="http://www.w3.org/2000/svg">
<g clip-path="url(#clip0_127_79)">
<path d="M276.391 0H84.6094C37.8809 0 0 37.8809 0 84.6094V276.391C0 323.119 37.8809 361 84.6094 361H276.391C323.119 361 361 323.119 361 276.391V84.6094C361 37.8809 323.119 0 276.391 0Z" fill="#F4F2ED"/>
<mask id="mask0_127_79" style="mask-type:luminance" maskUnits="userSpaceOnUse" x="86" y="39" width="189" height="283">
<path d="M86.0195 39.4844H274.078V321.516H86.0195V39.4844Z" fill="white"/>
</mask>
<g mask="url(#mask0_127_79)">
<path d="M133.044 321.516C158.991 321.516 180.049 300.458 180.049 274.511V227.505H133.044C107.097 227.505 86.0378 248.564 86.0378 274.511C86.0378 300.458 107.097 321.516 133.044 321.516Z" fill="#0ACF83"/>
<path d="M86.0378 180.5C86.0378 154.553 107.097 133.495 133.044 133.495H180.049V227.505H133.044C107.097 227.505 86.0378 206.447 86.0378 180.5Z" fill="#A259FF"/>
<path d="M86.0378 86.4891C86.0378 60.5422 107.097 39.4844 133.044 39.4844H180.049V133.495H133.044C107.097 133.495 86.0378 112.436 86.0378 86.4891Z" fill="#F24E1E"/>
<path d="M180.049 39.4844H227.053C253 39.4844 274.06 60.5422 274.06 86.4891C274.06 112.436 253 133.495 227.053 133.495H180.049V39.4844Z" fill="#FF7262"/>
<path d="M274.06 180.5C274.06 206.447 253 227.505 227.053 227.505C201.107 227.505 180.049 206.447 180.049 180.5C180.049 154.553 201.107 133.495 227.053 133.495C253 133.495 274.06 154.553 274.06 180.5Z" fill="#1ABCFE"/>
</g>
</g>
<defs>
<clipPath id="clip0_127_79">
<rect width="361" height="361" fill="white"/>
</clipPath>
</defs>
</svg>
