<svg width="361" height="361" viewBox="0 0 361 361" fill="none" xmlns="http://www.w3.org/2000/svg">
<g clip-path="url(#clip0_128_830)">
<path d="M0 12.0879V28.0226C3.20498 28.0256 6.27784 29.3001 8.54411 31.5664C10.8104 33.8326 12.0849 36.9055 12.0879 40.1105C12.0849 43.3155 10.8104 46.3883 8.54411 48.6546C6.27784 50.9209 3.20498 52.1954 0 52.1983L0 68.1331C3.20449 68.1361 6.27693 69.4102 8.54311 71.6759C10.8093 73.9415 12.0841 77.0137 12.0879 80.2181C12.0849 83.4231 10.8104 86.496 8.54411 88.7623C6.27784 91.0285 3.20498 92.303 0 92.306V108.241C3.20596 108.244 6.27967 109.519 8.5461 111.787C10.8125 114.054 12.0864 117.128 12.0879 120.334C12.0864 123.54 10.8125 126.615 8.5461 128.882C6.27967 131.15 3.20596 132.425 0 132.428L0 148.363C3.20449 148.366 6.27693 149.64 8.54311 151.905C10.8093 154.171 12.0841 157.243 12.0879 160.448C12.0849 163.653 10.8104 166.725 8.54411 168.992C6.27784 171.258 3.20498 172.532 0 172.535L0 188.47C3.20449 188.473 6.27693 189.747 8.54311 192.013C10.8093 194.279 12.0841 197.351 12.0879 200.555C12.0856 203.761 10.8115 206.834 8.5451 209.101C6.27876 211.368 3.20547 212.643 0 212.646L0 228.581C3.20449 228.584 6.27693 229.858 8.54311 232.123C10.8093 234.389 12.0841 237.461 12.0879 240.666C12.0849 243.871 10.8104 246.944 8.54411 249.21C6.27784 251.476 3.20498 252.751 0 252.754L0 268.688C3.20449 268.691 6.27693 269.965 8.54311 272.231C10.8093 274.497 12.0841 277.569 12.0879 280.773C12.0849 283.978 10.8104 287.051 8.54411 289.318C6.27784 291.584 3.20498 292.858 0 292.861L0 308.796C3.20449 308.799 6.27693 310.073 8.54311 312.339C10.8093 314.604 12.0841 317.677 12.0879 320.881C12.0856 324.087 10.8115 327.16 8.5451 329.427C6.27876 331.694 3.20547 332.969 0 332.972L0 348.915C3.20426 348.919 6.27649 350.192 8.54555 352.454C10.8049 354.726 12.0785 357.796 12.0907 361H28.0254C28.0292 357.796 29.304 354.723 31.5702 352.458C33.8364 350.192 36.9088 348.918 40.1133 348.915C43.3168 348.919 46.3878 350.194 48.6528 352.46C50.9177 354.725 52.1918 357.796 52.1955 361H68.1331C68.1368 357.796 69.4117 354.723 71.6779 352.458C73.944 350.192 77.0165 348.918 80.221 348.915C83.425 348.919 86.4967 350.193 88.7623 352.459C91.0278 354.724 92.3023 357.796 92.306 361H108.241C108.245 357.796 109.519 354.723 111.786 352.458C114.052 350.192 117.124 348.918 120.329 348.915C123.533 348.918 126.606 350.192 128.872 352.458C131.138 354.723 132.413 357.796 132.416 361H148.351C148.355 357.796 149.63 354.723 151.896 352.458C154.162 350.192 157.235 348.918 160.439 348.915C163.644 348.918 166.716 350.192 168.982 352.458C171.248 354.723 172.523 357.796 172.527 361H188.462C188.465 357.796 189.74 354.723 192.007 352.458C194.273 350.192 197.345 348.918 200.55 348.915C203.754 348.918 206.827 350.192 209.093 352.458C211.359 354.723 212.634 357.796 212.637 361H228.572C228.576 357.796 229.851 354.723 232.117 352.458C234.383 350.192 237.456 348.918 240.66 348.915C243.864 348.919 246.936 350.193 249.201 352.459C251.467 354.724 252.741 357.796 252.745 361H268.683C268.686 357.796 269.961 354.723 272.227 352.458C274.494 350.192 277.566 348.918 280.771 348.915C283.975 348.919 287.046 350.193 289.312 352.459C291.577 354.724 292.852 357.796 292.856 361H308.793C308.797 357.796 310.072 354.723 312.338 352.458C314.604 350.192 317.677 348.918 320.881 348.915C324.085 348.919 327.157 350.193 329.422 352.459C331.688 354.724 332.962 357.796 332.966 361H348.912C348.917 357.795 350.191 354.723 352.454 352.454C354.724 350.192 357.796 348.919 361 348.915V332.98C357.795 332.977 354.721 331.702 352.455 329.435C350.189 327.169 348.914 324.095 348.912 320.89C348.917 317.686 350.192 314.614 352.458 312.349C354.724 310.084 357.796 308.81 361 308.807V292.873C357.795 292.87 354.721 291.595 352.455 289.328C350.189 287.061 348.914 283.987 348.912 280.782C348.916 277.577 350.191 274.505 352.457 272.24C354.723 269.974 357.796 268.7 361 268.697V252.762C357.795 252.759 354.722 251.485 352.456 249.218C350.19 246.952 348.915 243.879 348.912 240.674C348.915 237.469 350.19 234.396 352.456 232.13C354.722 229.864 357.795 228.589 361 228.586V212.652C357.795 212.649 354.721 211.374 352.455 209.107C350.189 206.84 348.914 203.766 348.912 200.561C348.917 197.357 350.193 194.287 352.459 192.022C354.725 189.758 357.796 188.484 361 188.481V172.547C357.795 172.544 354.721 171.269 352.455 169.002C350.189 166.735 348.914 163.662 348.912 160.456C348.916 157.252 350.191 154.179 352.457 151.914C354.723 149.648 357.796 148.374 361 148.371V132.436C357.794 132.433 354.72 131.158 352.454 128.89C350.187 126.623 348.914 123.549 348.912 120.343C348.914 117.137 350.189 114.064 352.455 111.797C354.721 109.53 357.795 108.255 361 108.252V92.3145C357.795 92.3115 354.722 91.037 352.456 88.7707C350.19 86.5045 348.915 83.4316 348.912 80.2266C348.915 77.0216 350.19 73.9488 352.456 71.6825C354.722 69.4162 357.795 68.1417 361 68.1387V52.204C357.795 52.201 354.722 50.9265 352.456 48.6602C350.19 46.394 348.915 43.3211 348.912 40.1161C348.917 36.9121 350.192 33.8407 352.458 31.5757C354.724 29.3106 357.796 28.0369 361 28.0339V12.0879C357.797 12.0779 354.727 10.8074 352.454 8.55119C350.195 6.27774 348.922 3.20539 348.912 0L332.975 0C332.972 3.20498 331.697 6.27784 329.431 8.54411C327.165 10.8104 324.092 12.0849 320.887 12.0879C317.682 12.0841 314.61 10.8093 312.344 8.54311C310.079 6.27693 308.805 3.20449 308.802 0L292.867 0C292.864 3.20498 291.589 6.27784 289.323 8.54411C287.057 10.8104 283.984 12.0849 280.779 12.0879C277.574 12.0849 274.501 10.8104 272.235 8.54411C269.969 6.27784 268.694 3.20498 268.691 0L252.756 0C252.753 3.20498 251.479 6.27784 249.213 8.54411C246.946 10.8104 243.874 12.0849 240.669 12.0879C237.464 12.0849 234.391 10.8104 232.124 8.54411C229.858 6.27784 228.584 3.20498 228.581 0L212.646 0C212.643 3.20498 211.368 6.27784 209.102 8.54411C206.836 10.8104 203.763 12.0849 200.558 12.0879C197.353 12.0849 194.28 10.8104 192.014 8.54411C189.748 6.27784 188.473 3.20498 188.47 0L172.535 0C172.532 3.20498 171.258 6.27784 168.992 8.54411C166.725 10.8104 163.653 12.0849 160.448 12.0879C157.243 12.0841 154.171 10.8093 151.905 8.54311C149.64 6.27693 148.366 3.20449 148.363 0L132.425 0C132.422 3.20498 131.147 6.27784 128.881 8.54411C126.615 10.8104 123.542 12.0849 120.337 12.0879C117.133 12.0841 114.06 10.8093 111.795 8.54311C109.529 6.27693 108.255 3.20449 108.252 0L92.3173 0C92.3143 3.20498 91.0398 6.27784 88.7735 8.54411C86.5073 10.8104 83.4344 12.0849 80.2294 12.0879C77.024 12.0856 73.9504 10.8115 71.6835 8.5451C69.4166 6.27876 68.1417 3.20547 68.1387 0L52.204 0C52.201 3.20498 50.9265 6.27784 48.6602 8.54411C46.394 10.8104 43.3211 12.0849 40.1161 12.0879C36.9116 12.0841 33.8395 10.8093 31.5738 8.54311C29.3082 6.27693 28.0341 3.20449 28.0311 0L12.0879 0C12.0779 3.20539 10.8052 6.27774 8.54555 8.55119C6.27257 10.8074 3.20263 12.0779 0 12.0879Z" fill="url(#paint0_linear_128_830)"/>
<path d="M307.527 144.448H127.385L136.788 100.462H246.583L256.648 53.1233H98.8436L49.1497 287.48H96.8299L118.651 185.074H233.011L133.641 283.447L151.098 314.335C159.156 308.965 172.251 308.291 181.315 308.291C197.436 308.291 213.213 313.667 229.661 313.667C244.744 313.667 260.182 312.66 285.368 300.572L294.167 259.274C277.042 266.325 251.702 273.04 229.661 273.04C220.602 273.04 212.206 271.026 203.477 269.684L299.802 176.01L307.527 144.448Z" fill="white"/>
</g>
<defs>
<linearGradient id="paint0_linear_128_830" x1="180.491" y1="43.8384" x2="180.491" y2="322.714" gradientUnits="userSpaceOnUse">
<stop stop-color="#BF0000"/>
<stop offset="1" stop-color="#8F0000"/>
</linearGradient>
<clipPath id="clip0_128_830">
<rect width="361" height="361" fill="white"/>
</clipPath>
</defs>
</svg>
