<svg width="287" height="361" viewBox="0 0 287 361" fill="none" xmlns="http://www.w3.org/2000/svg">
<g clip-path="url(#clip0_607_41)">
<path d="M89.8894 350.119C104.974 356.189 121.336 359.792 138.518 360.392C160.959 361.193 183.273 356.695 203.651 347.264C179.946 337.951 158.478 324.331 140.155 307.397C128.278 326.414 110.71 341.434 89.8894 350.119Z" fill="#FF9100"/>
<path d="M140.151 307.403C98.3267 268.72 72.9541 212.731 75.0987 151.323C75.1682 149.327 75.2736 147.335 75.3969 145.343C56.822 140.527 37.3011 140.731 18.831 145.935C7.66607 165.493 0.928294 187.933 0.088595 211.969C-2.07736 274.005 35.4625 328.207 89.8871 350.125C110.708 341.44 128.273 326.436 140.151 307.403Z" fill="#FFC400"/>
<path d="M140.153 307.4C149.878 291.839 155.774 273.594 156.46 253.938C158.265 202.232 123.506 157.752 75.398 145.341C75.2746 147.333 75.1704 149.326 75.1009 151.321C72.9562 212.73 98.3288 268.717 140.153 307.4Z" fill="#FF9100"/>
<path d="M151.08 0C123.68 21.9515 102.045 50.8943 88.9555 84.2363C81.2858 103.781 76.7044 124.4 75.3757 145.354C123.484 157.765 158.244 202.245 156.438 253.951C155.751 273.607 149.838 291.834 140.131 307.414C158.632 324.538 180.165 338.058 203.627 347.281C251.207 325.287 284.965 277.959 286.921 221.98C288.186 185.711 274.252 153.386 254.561 126.101C233.767 97.2435 151.079 0 151.079 0" fill="#DD2C00"/>
</g>
<defs>
<clipPath id="clip0_607_41">
<rect width="287" height="361" fill="white"/>
</clipPath>
</defs>
</svg>
