<svg width="361" height="361" viewBox="0 0 361 361" fill="none" xmlns="http://www.w3.org/2000/svg">
  <path d="M180.5 30.0833C160.747 30.0833 141.187 33.9739 122.938 41.533C104.689 49.0922 88.1069 60.1718 74.1394 74.1393C45.9308 102.348 30.0834 140.607 30.0834 180.5C30.0834 246.984 73.253 303.39 132.968 323.396C140.489 324.599 142.896 319.936 142.896 315.875V290.454C101.23 299.479 92.3559 270.299 92.3559 270.299C85.4367 252.85 75.6596 248.187 75.6596 248.187C61.9717 238.862 76.7125 239.162 76.7125 239.162C91.7542 240.215 99.7263 254.655 99.7263 254.655C112.813 277.519 134.924 270.75 143.498 267.14C144.851 257.363 148.762 250.745 152.974 246.984C119.581 243.224 84.5342 230.288 84.5342 172.979C84.5342 156.283 90.25 142.896 100.027 132.216C98.523 128.456 93.2584 112.812 101.531 92.5062C101.531 92.5062 114.166 88.4449 142.896 107.849C154.779 104.54 167.715 102.885 180.5 102.885C193.285 102.885 206.221 104.54 218.104 107.849C246.834 88.4449 259.469 92.5062 259.469 92.5062C267.742 112.812 262.477 128.456 260.973 132.216C270.75 142.896 276.466 156.283 276.466 172.979C276.466 230.438 241.268 243.073 207.725 246.834C213.14 251.497 218.104 260.672 218.104 274.661V315.875C218.104 319.936 220.511 324.75 228.182 323.396C287.898 303.24 330.917 246.984 330.917 180.5C330.917 160.747 327.026 141.187 319.467 122.938C311.908 104.689 300.828 88.1068 286.861 74.1393C272.893 60.1718 256.311 49.0922 238.062 41.533C219.813 33.9739 200.253 30.0833 180.5 30.0833Z" fill="#f3f4f6"/>
</svg>