<svg width="361" height="361" viewBox="0 0 361 361" fill="none" xmlns="http://www.w3.org/2000/svg">
<g clip-path="url(#clip0_128_858)">
<path d="M276.391 0H84.6094C37.8809 0 0 37.8809 0 84.6094V276.391C0 323.119 37.8809 361 84.6094 361H276.391C323.119 361 361 323.119 361 276.391V84.6094C361 37.8809 323.119 0 276.391 0Z" fill="#330000"/>
<path d="M174.483 214.813H118.528L107.096 250.162C106.795 251.515 105.592 252.418 104.239 252.267H75.9595C74.3054 252.267 73.8541 251.365 74.3054 249.56L122.74 110.123C123.191 108.62 123.642 106.964 124.243 105.159C124.845 102.001 125.146 98.6925 125.146 95.3829C124.996 94.6313 125.597 93.8782 126.35 93.7288H165.307C166.511 93.7288 167.112 94.18 167.263 94.9316L222.164 249.861C222.616 251.515 222.164 252.267 220.661 252.267H189.223C188.171 252.418 187.118 251.666 186.817 250.613L174.483 214.813ZM127.252 184.279H165.458C164.555 181.12 163.352 177.359 161.999 173.449C160.645 169.388 159.291 165.026 157.937 160.514C156.433 155.85 155.079 151.338 153.574 146.674C152.071 142.013 150.717 137.649 149.513 133.288C148.31 129.077 147.257 125.165 146.205 121.555H145.903C144.549 128.024 142.895 134.492 140.79 140.959C138.534 148.179 136.277 155.699 133.87 163.221C131.928 170.321 129.721 177.345 127.252 184.279ZM255.708 120.051C250.744 120.202 245.931 118.246 242.321 114.787C238.862 111.026 237.057 106.062 237.207 100.949C237.057 95.8341 239.012 91.0213 242.622 87.5607C246.232 84.1002 251.046 82.2966 256.01 82.2966C261.876 82.2966 266.388 84.1016 269.697 87.5607C273.031 91.2072 274.811 96.0101 274.66 100.949C274.811 106.062 273.006 111.026 269.396 114.787C265.937 118.397 260.822 120.353 255.708 120.051ZM238.862 250.613V134.793C238.862 133.288 239.463 132.686 240.817 132.686H270.599C271.953 132.686 272.555 133.439 272.555 134.793V250.613C272.555 252.267 271.953 253.02 270.599 253.02H241.118C239.614 253.02 238.862 252.118 238.862 250.613Z" fill="#FF9A00"/>
</g>
<defs>
<clipPath id="clip0_128_858">
<rect width="361" height="361" fill="white"/>
</clipPath>
</defs>
</svg>
