<svg width="361" height="361" viewBox="0 0 361 361" fill="none" xmlns="http://www.w3.org/2000/svg">
<path d="M22.5625 22.5625H338.438V338.438H22.5625V22.5625Z" fill="#F5DE19"/>
<path d="M234.752 269.34C237.447 274.803 241.63 279.395 246.818 282.588C252.007 285.781 257.991 287.445 264.083 287.39C276.379 287.39 284.242 281.242 284.242 272.724C284.242 262.571 276.165 258.938 262.628 253.016L255.204 249.835C233.77 240.708 219.556 229.28 219.556 205.116C219.556 182.858 236.478 165.902 263.022 165.902C271.615 165.283 280.2 167.207 287.707 171.434C295.214 175.661 301.31 182.003 305.237 189.672L282.031 204.506C280.518 200.705 277.886 197.452 274.484 195.18C271.081 192.907 267.068 191.722 262.977 191.781C261.192 191.603 259.389 191.798 257.684 192.354C255.978 192.911 254.407 193.816 253.071 195.014C251.735 196.211 250.663 197.673 249.923 199.307C249.183 200.942 248.792 202.713 248.774 204.506C248.774 213.407 254.291 217.017 267.027 222.556L274.45 225.738C299.675 236.557 313.935 247.578 313.935 272.363C313.935 299.088 292.94 313.732 264.748 313.732C253.765 314.424 242.815 311.927 233.218 306.541C223.621 301.155 215.785 293.11 210.655 283.374L234.752 269.34ZM129.892 271.912C134.551 280.181 138.793 287.175 148.991 287.175C158.738 287.175 164.898 283.362 164.898 268.528V167.594H194.579V268.922C194.579 299.653 176.529 313.641 150.255 313.641C140.968 314.149 131.744 311.834 123.797 307.002C115.85 302.17 109.551 295.046 105.728 286.566L129.892 271.912Z" fill="black"/>
</svg>
