<svg width="370" height="361" viewBox="0 0 370 361" fill="none" xmlns="http://www.w3.org/2000/svg">
<g clip-path="url(#clip0_128_855)">
<path d="M308.574 0H61.4258C27.5013 0 0 27.4763 0 61.37V299.052C0 332.946 27.5013 360.422 61.4258 360.422H308.574C342.499 360.422 370 332.946 370 299.052V61.37C370 27.4763 342.499 0 308.574 0Z" fill="#001E36"/>
<path d="M194.312 254.735H96.518C94.8616 254.735 94.0344 253.825 94.0364 252.006V94.5388C93.9929 94.2357 94.0207 93.9266 94.1175 93.636C94.2143 93.3455 94.3776 93.0814 94.5942 92.8648C94.8109 92.6482 95.0751 92.485 95.3658 92.388C95.6566 92.2911 95.9659 92.2631 96.2694 92.3064H126.552C126.788 92.2731 127.028 92.2951 127.254 92.3707C127.48 92.4463 127.686 92.5733 127.854 92.7418C128.023 92.9103 128.15 93.1155 128.225 93.3414C128.3 93.5674 128.322 93.8077 128.289 94.0435V223.491H199.524C201.013 223.491 201.592 224.235 201.263 225.722L196.794 252.504C196.783 252.869 196.688 253.227 196.516 253.55C196.344 253.873 196.099 254.151 195.801 254.364C195.34 254.602 194.831 254.73 194.312 254.736M218.882 131.488H245.937C247.446 131.502 248.764 132.513 249.163 133.969C249.754 135.055 250.174 136.226 250.406 137.44C250.751 139.037 250.999 140.649 251.149 142.276C251.313 144.012 251.396 145.872 251.398 147.856C256.037 142.458 261.632 137.96 267.903 134.588C274.947 130.783 282.857 128.861 290.863 129.009C291.167 128.965 291.476 128.993 291.767 129.09C292.058 129.187 292.322 129.35 292.538 129.567C292.755 129.784 292.918 130.048 293.015 130.338C293.112 130.629 293.14 130.938 293.096 131.241V161.247C293.096 162.405 292.269 162.984 290.615 162.983C280.616 162.365 270.615 164.15 261.45 168.19C258.336 169.538 255.512 171.474 253.135 173.894V252.505C253.135 253.993 252.473 254.736 251.149 254.736H221.115C220.778 254.784 220.435 254.754 220.111 254.646C219.788 254.539 219.495 254.357 219.254 254.117C219.013 253.876 218.832 253.583 218.724 253.26C218.616 252.937 218.586 252.594 218.634 252.257V166.95C218.634 164.873 218.62 162.728 218.593 160.514L218.543 157.143C218.533 156.573 218.522 155.998 218.51 155.419C218.446 152.404 218.361 149.389 218.252 146.375L218.137 143.392C218.027 139.985 217.696 136.589 217.145 133.225C217.087 133 217.085 132.765 217.138 132.539C217.192 132.313 217.3 132.103 217.453 131.929C217.606 131.754 217.8 131.619 218.017 131.537C218.234 131.454 218.468 131.425 218.699 131.453L218.882 131.488Z" fill="#31A8FF"/>
</g>
<defs>
<clipPath id="clip0_128_855">
<rect width="370" height="361" fill="white"/>
</clipPath>
</defs>
</svg>
