<svg width="168" height="361" viewBox="0 0 168 361" fill="none" xmlns="http://www.w3.org/2000/svg">
<g clip-path="url(#clip0_540_54)">
<path d="M115.234 40.182C100.142 22.23 87.1462 3.99651 84.4912 0.210287C84.4281 0.143839 84.3522 0.0909361 84.2681 0.0547878C84.184 0.0186396 84.0935 0 84.002 0C83.9105 0 83.8199 0.0186396 83.7358 0.0547878C83.6517 0.0909361 83.5758 0.143839 83.5127 0.210287C80.8577 3.99717 67.8616 22.23 52.7694 40.182C-76.7699 205.819 73.1722 317.6 73.1722 317.6L74.4295 318.441C75.5471 335.692 78.3424 360.517 78.3424 360.517H89.5218C89.5218 360.517 92.3158 335.832 93.4341 318.442L94.692 317.46C94.8317 317.6 244.774 205.819 115.234 40.182ZM83.9318 315.075C83.9318 315.075 77.2242 309.325 75.4074 306.38V306.099L83.5127 125.736C83.5127 125.175 84.3515 125.175 84.3515 125.736L92.4562 306.099V306.38C90.6394 309.325 83.9318 315.075 83.9318 315.075" fill="#01EC64"/>
</g>
<defs>
<clipPath id="clip0_540_54">
<rect width="168" height="361" fill="white"/>
</clipPath>
</defs>
</svg>
