<svg width="361" height="410" viewBox="0 0 361 410" fill="none" xmlns="http://www.w3.org/2000/svg">
<g clip-path="url(#clip0_547_40)">
<path d="M2.95171 307.411C4.81253 310.718 7.50086 313.199 10.8109 315.059L170.055 406.833C176.674 410.759 184.739 410.759 191.15 406.833L350.396 315.059C357.015 311.339 360.943 304.31 360.943 296.662V113.115C360.943 105.467 357.015 98.4394 350.396 94.7198L191.15 2.94462C184.533 -0.983492 176.467 -0.983492 170.055 2.94462L10.8123 94.7198C3.98503 98.4394 0.0561523 105.467 0.0561523 113.115V296.868C0.0561523 300.591 0.883655 304.104 2.95171 307.411Z" fill="#009639"/>
<path d="M129.52 274.959C129.532 277.65 129.01 280.316 127.985 282.804C126.96 285.292 125.452 287.552 123.549 289.454C121.645 291.357 119.384 292.864 116.895 293.888C114.405 294.913 111.738 295.434 109.046 295.423C106.354 295.434 103.686 294.912 101.197 293.888C98.7083 292.863 96.4469 291.356 94.5435 289.454C92.6401 287.552 91.1325 285.291 90.1077 282.803C89.0829 280.316 88.5611 277.65 88.5724 274.959V134.613C88.5724 123.657 98.2924 114.769 111.734 114.769C121.455 114.769 132.83 118.696 139.655 127.171L145.858 134.613L231.48 236.927V135.025C231.468 132.335 231.99 129.669 233.015 127.181C234.04 124.693 235.548 122.433 237.451 120.53C239.355 118.628 241.616 117.121 244.105 116.096C246.595 115.072 249.262 114.551 251.954 114.562C254.646 114.551 257.314 115.072 259.803 116.097C262.292 117.121 264.553 118.628 266.457 120.531C268.36 122.433 269.868 124.693 270.892 127.181C271.917 129.669 272.439 132.335 272.428 135.025V275.374C272.428 286.328 262.708 295.216 249.266 295.216C239.545 295.216 228.17 291.289 221.345 282.814L129.52 173.264V274.959Z" fill="white"/>
</g>
<defs>
<clipPath id="clip0_547_40">
<rect width="361" height="410" fill="white"/>
</clipPath>
</defs>
</svg>
