<svg width="361" height="361" viewBox="0 0 361 361" fill="none" xmlns="http://www.w3.org/2000/svg">
<path d="M180.5 225.659V248.221H225.625C231.609 248.221 237.348 245.844 241.579 241.613C245.81 237.382 248.188 231.643 248.188 225.659V203.096C248.188 197.112 245.81 191.374 241.579 187.142C237.348 182.911 231.609 180.534 225.625 180.534H203.062V157.971H248.188V135.409H203.062C197.079 135.409 191.34 137.786 187.108 142.017C182.877 146.249 180.5 151.987 180.5 157.971V180.534C180.5 186.518 182.877 192.257 187.108 196.488C191.34 200.719 197.079 203.096 203.062 203.096H225.625V225.659H180.5Z" fill="#8BC34A"/>
<path d="M180.5 33.8777L45.125 112.846V270.784L90.25 293.346H157.938V141.05C157.938 139.554 157.343 138.119 156.285 137.061C155.228 136.003 153.793 135.409 152.297 135.409H141.016C139.52 135.409 138.085 136.003 137.027 137.061C135.969 138.119 135.375 139.554 135.375 141.05V270.784H90.25L67.6875 259.119V125.786L180.5 59.9825L293.312 125.786V257.811L180.5 323.614L160.814 312.085L146.656 330.01L180.5 349.753L315.875 270.784V112.846L180.5 33.8777Z" fill="#8BC34A"/>
</svg>
