<svg width="550" height="361" viewBox="0 0 550 361" fill="none" xmlns="http://www.w3.org/2000/svg">
<path d="M308.554 358.914H513.013C519.507 358.914 525.886 357.257 531.511 354.107C537.099 350.991 541.768 346.46 545.05 340.967C548.289 335.54 549.999 329.339 550 323.02C550 316.719 548.283 310.533 545.033 305.077L407.726 74.3488C404.444 68.8584 399.775 64.3283 394.189 61.2131C388.538 58.053 382.17 56.3971 375.695 56.4041C369.2 56.4041 362.824 58.063 357.199 61.2131C351.613 64.3278 346.945 68.8581 343.664 74.3488L308.554 133.383L239.912 17.9404C236.625 12.4519 231.955 7.92299 226.368 4.8069C220.714 1.65035 214.345 -0.00457299 207.87 9.49084e-06C201.377 9.49084e-06 194.996 1.65889 189.372 4.8069C183.786 7.9233 179.117 12.4522 175.83 17.9404L4.96289 305.077C1.72062 310.501 0.00574146 316.701 0 323.02C0 329.32 1.70371 335.511 4.95 340.967C8.23155 346.46 12.9012 350.991 18.4895 354.107C24.1422 357.267 30.5117 358.922 36.9875 358.914H165.329C216.18 358.914 253.679 337.245 279.484 294.969L342.13 189.714L375.684 133.383L476.39 302.585H342.13L308.554 358.914ZM163.234 302.529L73.6699 302.507L207.93 76.9188L274.921 189.714L230.068 265.103C212.932 292.533 193.465 302.527 163.236 302.527" fill="#00DC82"/>
</svg>
