<svg width="361" height="361" viewBox="0 0 361 361" fill="none" xmlns="http://www.w3.org/2000/svg">
<g clip-path="url(#clip0_128_862)">
<path d="M276.391 0H84.6094C37.8809 0 0 37.8809 0 84.6094V276.391C0 323.119 37.8809 361 84.6094 361H276.391C323.119 361 361 323.119 361 276.391V84.6094C361 37.8809 323.119 0 276.391 0Z" fill="#001E36"/>
<path d="M81.225 251.064V96.2854C81.225 95.232 81.6762 94.6313 82.7296 94.6313C85.2862 94.6313 87.6934 94.6313 91.1525 94.4804C94.7625 94.3295 98.5234 94.3295 102.585 94.18C106.646 94.0291 111.007 94.0291 115.671 93.8782C120.333 93.7288 124.845 93.7288 129.358 93.7288C141.692 93.7288 151.92 95.232 160.345 98.3907C167.895 100.956 174.78 105.169 180.5 110.725C185.346 115.589 189.091 121.437 191.481 127.873C193.737 134.19 194.94 140.659 194.94 147.428C194.94 160.363 191.932 171.043 185.915 179.466C179.898 187.889 171.475 194.207 161.698 197.817C151.469 201.578 140.188 202.931 127.855 202.931C124.245 202.931 121.837 202.931 120.333 202.78C118.828 202.629 116.723 202.629 113.866 202.629V250.913C114.015 251.967 113.264 252.869 112.21 253.02H83.03C81.8271 253.02 81.225 252.418 81.225 251.064ZM114.015 123.661V174.201C116.122 174.352 118.077 174.503 119.882 174.503H127.855C133.721 174.503 139.587 173.6 145.152 171.795C149.966 170.441 154.177 167.583 157.486 163.822C160.645 160.062 162.15 154.948 162.15 148.33C162.291 143.629 161.091 138.986 158.689 134.942C156.132 131.032 152.522 128.024 148.161 126.368C142.595 124.112 136.578 123.209 130.411 123.36C126.501 123.36 123.04 123.36 120.183 123.511C117.174 123.36 115.069 123.511 114.015 123.661ZM288.8 165.026C284.287 162.619 279.475 160.965 274.36 159.912C268.794 158.709 263.23 157.956 257.513 157.956C254.505 157.806 251.346 158.258 248.488 159.009C246.533 159.46 244.878 160.514 243.826 162.017C243.073 163.221 242.622 164.724 242.622 166.078C242.622 167.432 243.224 168.786 244.126 169.99C245.48 171.644 247.285 172.998 249.241 174.051C252.728 175.857 256.291 177.513 259.92 179.015C268.042 181.723 275.865 185.482 283.085 189.994C288.048 193.153 292.11 197.365 294.967 202.48C297.374 207.293 298.577 212.557 298.427 217.972C298.577 225.042 296.471 232.112 292.561 237.978C288.365 243.982 282.511 248.634 275.714 251.364C268.343 254.523 259.318 256.179 248.488 256.179C241.57 256.179 234.801 255.577 228.032 254.223C222.727 253.307 217.567 251.688 212.69 249.41C211.636 248.808 210.885 247.754 211.034 246.552V220.379C211.034 219.928 211.185 219.326 211.636 219.025C212.087 218.725 212.539 218.874 212.99 219.176C218.856 222.635 225.023 225.043 231.642 226.546C237.357 228.05 243.375 228.802 249.39 228.802C255.107 228.802 259.168 228.05 261.876 226.697C264.282 225.643 265.937 223.087 265.937 220.379C265.937 218.274 264.733 216.318 262.327 214.362C259.92 212.408 254.956 210.151 247.585 207.293C240.025 204.628 232.845 200.987 226.227 196.463C221.513 193.104 217.608 188.736 214.795 183.677C212.388 178.864 211.185 173.6 211.336 168.334C211.336 161.868 213.141 155.699 216.449 150.135C220.21 144.118 225.776 139.305 232.243 136.296C239.313 132.686 248.187 131.032 258.867 131.032C265.035 131.032 271.352 131.483 277.519 132.385C282.031 132.988 286.393 134.19 290.454 135.844C291.056 135.995 291.658 136.598 291.959 137.198C292.11 137.8 292.259 138.403 292.259 139.003V163.522C292.259 164.124 291.959 164.724 291.507 165.026C290.154 165.327 289.402 165.327 288.8 165.026Z" fill="#31A8FF"/>
</g>
<defs>
<clipPath id="clip0_128_862">
<rect width="361" height="361" fill="white"/>
</clipPath>
</defs>
</svg>
