<svg width="361" height="361" viewBox="0 0 361 361" fill="none" xmlns="http://www.w3.org/2000/svg">
<path d="M180.5 271.953C80.7738 271.953 0 231.04 0 180.5C0 129.96 80.7738 89.0466 180.5 89.0466C280.226 89.0466 361 129.96 361 180.5C361 231.04 280.226 271.953 180.5 271.953ZM102.434 152.372C110.556 152.372 116.122 153.876 118.829 157.035C121.537 160.043 122.138 165.458 120.785 172.528C119.28 180.5 116.423 185.614 112.06 188.923C107.849 192.232 101.381 193.887 92.6567 193.887H79.5704L87.5425 152.372H102.434ZM49.7879 235.853H71.4479L76.5621 209.53H95.0633C103.186 209.53 109.804 208.628 115.069 206.973C120.333 205.168 125.147 202.31 129.509 198.249C133.119 194.94 135.977 191.33 138.233 187.269C140.489 183.358 142.144 178.845 142.896 174.032C145.303 162.3 143.648 153.124 137.932 146.656C132.066 140.038 123.041 136.879 110.556 136.879H69.0413L49.7879 235.853ZM158.84 110.556L139.587 209.53H160.946L172.077 152.823H189.224C194.639 152.823 198.249 153.726 199.904 155.531C201.558 157.336 201.859 160.645 200.957 165.458L192.383 209.53H214.193L223.068 163.352C225.023 154.027 223.519 147.258 219.007 142.896C214.494 138.835 206.221 136.879 194.188 136.879H175.085L180.5 110.556H158.84ZM270.75 152.372C279.023 152.372 284.438 153.876 287.145 157.035C289.853 160.043 290.455 165.458 289.101 172.528C287.597 180.5 284.739 185.614 280.527 188.923C276.165 192.232 269.697 193.887 260.973 193.887H248.188L255.708 152.372H270.75ZM218.104 235.853H239.764L244.878 209.53H263.229C271.502 209.53 278.271 208.628 283.535 206.973C288.8 205.168 293.312 202.31 297.825 198.249C301.435 194.94 304.443 191.33 306.549 187.269C308.805 183.358 310.46 178.845 311.363 174.032C313.619 162.3 311.964 153.124 306.248 146.656C300.833 140.038 291.357 136.879 278.873 136.879H237.508L218.104 235.853Z" fill="#1E88E5"/>
</svg>
