<svg width="361" height="361" viewBox="0 0 361 361" fill="none" xmlns="http://www.w3.org/2000/svg">
<g clip-path="url(#clip0_128_833)">
<path d="M359.524 203.419C372.157 104.524 302.315 14.1086 203.6 1.47643C104.885 -11.1572 14.1086 58.6851 1.47643 157.4C-11.1572 256.115 58.6851 346.711 157.4 359.524C256.296 372.157 346.711 302.315 359.524 203.419Z" fill="#FF6C37"/>
<path d="M245.649 115.892L169.491 192.051L148.014 170.574C222.909 95.6806 230.309 102.177 245.649 115.892Z" fill="white"/>
<path d="M169.491 193.854C168.95 193.854 168.589 193.674 168.228 193.313L146.572 171.837C146.401 171.675 146.265 171.479 146.172 171.262C146.079 171.045 146.031 170.811 146.031 170.575C146.031 170.339 146.079 170.105 146.172 169.888C146.265 169.671 146.401 169.475 146.572 169.312C222.729 93.1536 230.669 100.372 246.731 114.809C247.092 115.17 247.272 115.531 247.272 116.073C247.272 116.614 247.092 116.975 246.731 117.336L170.574 193.313C170.394 193.674 169.852 193.854 169.491 193.854ZM150.543 170.574L169.491 189.524L242.942 116.073C229.588 104.163 220.563 100.551 150.543 170.574Z" fill="#FF6C37"/>
<path d="M191.327 213.887L170.574 193.132L246.731 116.975C267.124 137.55 236.625 170.935 191.327 213.887Z" fill="white"/>
<path d="M191.327 215.692C190.785 215.692 190.424 215.511 190.065 215.15L169.31 194.396C168.949 194.035 168.949 193.674 168.949 193.132C168.949 192.592 169.13 192.23 169.491 191.87L245.649 115.712C245.812 115.541 246.008 115.404 246.225 115.311C246.442 115.218 246.676 115.17 246.913 115.17C247.149 115.17 247.383 115.218 247.6 115.311C247.817 115.404 248.013 115.541 248.176 115.712C250.48 117.844 252.301 120.446 253.515 123.341C254.729 126.236 255.308 129.358 255.214 132.496C254.853 152.528 232.116 177.973 192.772 215.15C192.231 215.511 191.689 215.692 191.328 215.692M173.102 193.132C184.651 204.863 189.525 209.555 191.328 211.36C221.647 182.486 251.063 152.889 251.245 132.496C251.425 127.804 249.62 123.111 246.552 119.502L173.102 193.132Z" fill="#FF6C37"/>
<path d="M148.377 171.115L163.717 186.455C164.078 186.816 164.078 187.177 163.717 187.538C163.536 187.719 163.536 187.719 163.356 187.719L131.593 194.576C129.969 194.757 128.525 193.674 128.164 192.051C127.983 191.148 128.344 190.246 128.886 189.704L147.294 171.296C147.655 170.935 148.196 170.754 148.377 171.115Z" fill="white"/>
<path d="M131.051 196.381C128.344 196.381 126.36 194.215 126.36 191.509C126.36 190.246 126.901 188.982 127.804 188.08L146.211 169.672C147.294 168.769 148.738 168.769 149.821 169.672L165.16 185.011C166.243 185.914 166.243 187.538 165.16 188.621C164.799 188.982 164.438 189.163 163.897 189.343L132.134 196.201C131.773 196.201 131.412 196.381 131.051 196.381ZM147.835 173.101L130.149 190.787C129.788 191.148 129.607 191.69 129.968 192.231C130.149 192.773 130.69 192.952 131.232 192.773L161.009 186.275L147.835 173.101Z" fill="#FF6C37"/>
<path d="M285.892 73.6637C274.343 62.4741 255.754 62.8351 244.566 74.5662C233.376 86.2959 233.737 104.704 245.469 115.892C250.099 120.366 256.079 123.181 262.477 123.899C268.875 124.618 275.331 123.199 280.838 119.863L260.264 99.2891L285.892 73.6637Z" fill="white"/>
<path d="M265.68 125.818C248.536 125.818 234.64 111.923 234.64 94.7779C234.64 77.6332 248.536 63.7375 265.68 63.7375C273.62 63.7375 281.381 66.806 287.157 72.4001C287.517 72.7611 287.697 73.1221 287.697 73.6636C287.697 74.2051 287.517 74.5661 287.156 74.9271L262.792 99.289L281.923 118.419C282.645 119.141 282.645 120.224 281.923 120.946L281.562 121.307C276.869 124.194 271.275 125.818 265.68 125.818ZM265.68 67.5295C250.521 67.5295 238.249 79.8006 238.429 94.9598C238.429 110.119 250.702 122.392 265.861 122.211C270.011 122.211 274.163 121.309 277.952 119.323L259.003 100.554C258.642 100.193 258.462 99.8319 258.462 99.2904C258.462 98.7503 258.642 98.3879 259.003 98.0283L283.186 73.8441C278.313 69.694 272.177 67.5295 265.68 67.5295Z" fill="#FF6C37"/>
<path d="M286.434 74.2052L286.073 73.8442L260.267 99.2891L280.659 119.683C282.645 118.419 284.629 116.975 286.253 115.351C288.988 112.673 291.163 109.479 292.654 105.954C294.144 102.429 294.921 98.6429 294.937 94.8157C294.954 90.9885 294.211 87.1961 292.751 83.6582C291.292 80.1202 289.144 76.9072 286.434 74.2052Z" fill="white"/>
<path d="M280.84 121.668C280.298 121.668 279.937 121.488 279.576 121.127L259.002 100.553C258.642 100.192 258.462 99.8307 258.462 99.2892C258.462 98.7491 258.642 98.3867 259.003 98.0271L284.629 72.4004C284.792 72.2292 284.988 72.0929 285.205 71.9998C285.422 71.9067 285.656 71.8586 285.892 71.8586C286.129 71.8586 286.362 71.9067 286.58 71.9998C286.797 72.0929 286.993 72.2292 287.156 72.4004L287.697 72.7614C299.789 84.852 299.789 104.343 287.878 116.614C286.073 118.419 284.089 120.044 281.923 121.307C281.381 121.488 281.02 121.668 280.84 121.668ZM262.793 99.2892L281.02 117.517C282.464 116.614 283.908 115.351 284.99 114.269C295.277 103.982 295.818 87.1985 285.892 76.3699L262.793 99.2892Z" fill="#FF6C37"/>
<path d="M248.716 119.141C246.633 117.062 243.81 115.894 240.866 115.894C237.922 115.894 235.099 117.062 233.016 119.141L164.98 187.177L176.349 198.547L248.355 135.384C253.048 131.413 253.408 124.374 249.438 119.683C249.077 119.502 248.897 119.322 248.716 119.141Z" fill="white"/>
<path d="M176.168 200.352C175.627 200.352 175.266 200.172 174.905 199.811L163.536 188.44C163.365 188.278 163.228 188.082 163.135 187.864C163.042 187.647 162.994 187.413 162.994 187.177C162.994 186.941 163.042 186.707 163.135 186.49C163.228 186.272 163.365 186.076 163.536 185.913L231.572 117.878C232.766 116.677 234.186 115.723 235.75 115.073C237.314 114.423 238.992 114.088 240.685 114.088C242.379 114.088 244.057 114.423 245.621 115.073C247.185 115.723 248.605 116.677 249.799 117.878C251 119.072 251.954 120.492 252.604 122.056C253.254 123.62 253.589 125.298 253.589 126.992C253.589 128.685 253.254 130.363 252.604 131.927C251.954 133.491 251 134.911 249.799 136.105L249.258 136.647L177.251 199.811C177.071 200.172 176.71 200.352 176.168 200.352ZM167.505 187.177L176.349 196.02L247.092 133.939C251.063 130.69 251.424 124.735 248.175 120.766C244.927 116.795 238.971 116.434 235.001 119.683C234.821 119.863 234.64 120.044 234.279 120.224L167.505 187.177Z" fill="#FF6C37"/>
<path d="M112.824 264.598C112.103 264.959 111.742 265.681 111.921 266.403L114.99 279.396C115.712 281.201 114.629 283.367 112.643 283.908C111.2 284.45 109.576 283.908 108.673 282.825L88.8213 263.154L153.61 198.367L175.989 198.728L191.148 213.887C187.538 216.954 165.702 238.07 112.824 264.598Z" fill="white"/>
<path d="M111.381 285.712C109.937 285.712 108.493 285.172 107.591 284.089L87.919 264.417C87.5594 264.056 87.3789 263.695 87.3789 263.155C87.3789 262.613 87.5594 262.252 87.9204 261.891L152.707 197.103C153.068 196.742 153.61 196.562 153.971 196.562L176.35 196.923C176.89 196.923 177.252 197.103 177.612 197.464L192.771 212.623C193.132 212.984 193.313 213.526 193.313 214.067C193.313 214.609 193.132 214.97 192.591 215.331L191.327 216.413C172.198 233.196 146.211 249.98 113.907 266.042L116.975 278.856C117.517 281.201 116.434 283.728 114.268 284.99C113.185 285.533 112.282 285.712 111.381 285.712ZM91.529 263.156L110.118 281.563C110.659 282.466 111.742 282.827 112.643 282.285C113.546 281.744 113.907 280.661 113.365 279.758L110.298 266.765C109.937 265.14 110.659 263.696 112.103 262.976C144.045 246.914 169.852 230.311 188.802 213.888L175.447 200.534L154.693 200.173L91.529 263.156Z" fill="#FF6C37"/>
<path d="M73.4831 278.675L89.0019 263.155L112.103 286.253L75.2867 283.728C73.6622 283.547 72.5792 282.103 72.7611 280.479C72.7611 279.757 72.9416 279.035 73.4817 278.674" fill="white"/>
<path d="M112.103 287.878L75.1064 285.352C72.3989 285.172 70.5939 282.825 70.7758 280.118C70.9563 279.035 71.3173 277.953 72.2198 277.231L87.74 261.711C87.9029 261.54 88.0988 261.404 88.3159 261.311C88.5329 261.218 88.7666 261.17 89.0028 261.17C89.2389 261.17 89.4726 261.218 89.6897 261.311C89.9067 261.404 90.1026 261.54 90.2656 261.711L113.365 284.809C113.907 285.352 114.087 286.074 113.726 286.795C113.365 287.517 112.824 287.878 112.103 287.878ZM89.0021 265.682L74.7454 279.939C74.2039 280.298 74.2039 281.201 74.7454 281.562C74.9259 281.742 75.1064 281.923 75.4674 281.923L107.41 284.089L89.0021 265.682ZM147.294 206.668C146.211 206.668 145.489 205.766 145.489 204.863C145.489 204.322 145.669 203.961 146.03 203.6L163.536 186.094C163.699 185.923 163.895 185.787 164.112 185.694C164.329 185.601 164.563 185.552 164.799 185.552C165.036 185.552 165.27 185.601 165.487 185.694C165.704 185.787 165.9 185.923 166.063 186.094L177.432 197.464C177.973 198.006 178.154 198.547 177.973 199.269C177.793 199.811 177.251 200.352 176.529 200.533L147.655 206.667L147.294 206.668ZM164.799 189.885L152.888 201.795L172.379 197.645L164.799 189.885Z" fill="#FF6C37"/>
<path d="M175.988 198.728L156.137 203.058C154.693 203.419 153.249 202.517 152.888 201.073C152.707 200.17 152.888 199.268 153.61 198.547L164.619 187.538L175.988 198.728Z" fill="white"/>
<path d="M155.776 204.863C155.182 204.869 154.592 204.756 154.042 204.531C153.492 204.307 152.993 203.974 152.572 203.554C152.152 203.134 151.82 202.634 151.595 202.084C151.371 201.534 151.258 200.945 151.263 200.351C151.263 199.089 151.805 198.006 152.527 197.103L163.536 186.094C163.699 185.923 163.895 185.787 164.112 185.694C164.329 185.6 164.563 185.552 164.799 185.552C165.036 185.552 165.27 185.6 165.487 185.694C165.704 185.787 165.9 185.923 166.063 186.094L177.432 197.464C177.973 198.006 178.154 198.547 177.973 199.269C177.793 199.811 177.251 200.352 176.529 200.533L156.678 204.863H155.776ZM164.799 189.885L155.054 199.629C154.693 199.991 154.693 200.352 154.873 200.712C155.054 201.073 155.415 201.253 155.956 201.253L172.56 197.643L164.799 189.885ZM286.614 91.529C286.253 90.4474 284.99 89.9059 283.907 90.2669C282.825 90.6279 282.284 91.89 282.645 92.9744C282.645 93.1535 282.825 93.334 282.825 93.5145C283.908 95.6805 283.547 98.388 282.103 100.372C281.381 101.275 281.562 102.538 282.284 103.26C283.186 103.982 284.448 103.802 285.17 102.899C287.878 99.4696 288.419 95.139 286.614 91.529Z" fill="#FF6C37"/>
</g>
<defs>
<clipPath id="clip0_128_833">
<rect width="361" height="361" fill="white"/>
</clipPath>
</defs>
</svg>
