<svg width="361" height="361" viewBox="0 0 361 361" fill="none" xmlns="http://www.w3.org/2000/svg">
<g clip-path="url(#clip0_129_33)">
<path d="M276.391 0H84.6094C37.8809 0 0 37.8809 0 84.6094V276.391C0 323.119 37.8809 361 84.6094 361H276.391C323.119 361 361 323.119 361 276.391V84.6094C361 37.8809 323.119 0 276.391 0Z" fill="#00005B"/>
<path d="M76.1484 257.607V102.678C76.1484 101.626 76.5997 101.024 77.6531 101.024C80.2097 101.024 82.6168 101.024 86.0759 100.873C89.6859 100.723 93.4468 100.723 97.5081 100.572C101.569 100.421 105.931 100.421 110.594 100.272C115.256 100.121 119.769 100.121 124.281 100.121C136.616 100.121 146.844 101.626 155.268 104.784C162.819 107.349 169.703 111.562 175.423 117.118C180.269 121.981 184.014 127.829 186.404 134.265C188.661 140.583 189.863 147.051 189.863 153.82C189.863 166.756 186.855 177.435 180.838 185.859C174.821 194.281 166.398 200.599 156.622 204.209C146.393 207.97 135.111 209.324 122.778 209.324C119.168 209.324 116.761 209.324 115.256 209.173C113.753 209.023 111.646 209.023 108.789 209.023V257.307C108.939 258.359 108.187 259.261 107.134 259.412H77.9534C76.7506 259.412 76.1484 258.81 76.1484 257.456V257.607ZM108.939 130.204V180.744C111.046 180.895 113 181.046 114.805 181.046H122.778C128.644 181.046 134.511 180.143 140.075 178.338C144.889 176.984 149.1 174.126 152.41 170.365C155.568 166.606 157.073 161.491 157.073 154.873C157.214 150.172 156.014 145.529 153.613 141.485C151.056 137.575 147.446 134.567 143.084 132.911C137.518 130.655 131.501 129.753 125.335 129.904C121.424 129.904 117.964 129.904 115.107 130.054C112.098 129.904 109.992 130.054 108.939 130.204ZM211.523 139.079H237.847C239.351 139.079 240.554 140.131 241.006 141.485C241.457 142.689 241.757 143.892 241.908 145.246C242.208 146.751 242.51 148.405 242.66 149.909C242.811 151.564 242.961 153.369 242.961 155.324C247.478 150.052 252.935 145.665 259.056 142.388C265.975 138.477 273.947 136.521 281.918 136.521C282.972 136.372 283.874 137.124 284.025 138.177V168.109C284.025 169.313 283.272 169.764 281.618 169.764C276.203 169.614 270.637 170.065 265.373 171.268C261.011 172.17 256.799 173.524 252.738 175.329C249.88 176.683 247.172 178.488 245.067 180.895V257.607C245.067 259.112 244.465 259.713 243.111 259.713H213.479C212.276 259.864 211.223 259.112 211.072 257.908V173.975C211.072 170.365 211.072 166.606 210.923 162.694C210.772 158.784 210.772 154.873 210.621 150.961C210.621 147.502 210.321 144.193 210.02 140.734C209.869 139.982 210.321 139.229 211.072 139.079C211.072 138.929 211.374 138.929 211.523 139.079Z" fill="#9999FF"/>
</g>
<defs>
<clipPath id="clip0_129_33">
<rect width="361" height="361" fill="white"/>
</clipPath>
</defs>
</svg>
