<svg width="405" height="361" viewBox="0 0 405 361" fill="none" xmlns="http://www.w3.org/2000/svg">
<g clip-path="url(#clip0_127_57)">
<path d="M332.991 116.888C328.68 115.408 324.334 114.037 319.955 112.776C320.69 109.767 321.368 106.796 321.969 103.876C331.837 55.931 325.386 17.3056 303.35 4.58822C282.222 -7.60344 247.669 5.10914 212.772 35.5044C209.333 38.5052 205.97 41.5927 202.687 44.7637C200.489 42.6552 198.252 40.5875 195.977 38.5618C159.404 6.06231 122.745 -7.63511 100.733 5.11864C79.6236 17.3483 73.373 53.6589 82.2577 99.0974C83.1417 103.598 84.1397 108.075 85.2509 112.524C80.0619 114 75.0547 115.57 70.2627 117.242C27.3834 132.205 0 155.652 0 179.974C0 205.094 29.3973 230.289 74.058 245.567C77.6789 246.8 81.3298 247.943 85.0073 248.995C83.8133 253.787 82.7529 258.612 81.8274 263.463C73.3572 308.113 79.9717 343.566 101.024 355.718C122.767 368.267 159.262 355.369 194.796 324.281C197.677 321.753 200.495 319.154 203.247 316.486C206.802 319.919 210.453 323.253 214.194 326.483C248.616 356.126 282.611 368.096 303.642 355.911C325.365 343.325 332.426 305.24 323.26 258.903C322.538 255.273 321.728 251.661 320.831 248.07C323.394 247.31 325.91 246.528 328.362 245.714C374.791 230.319 405 205.429 405 179.974C405 155.564 376.732 131.958 332.991 116.888ZM322.921 229.279C320.704 230.012 318.437 230.721 316.118 231.409C310.993 215.168 304.076 197.901 295.61 180.058C303.688 162.641 310.339 145.594 315.321 129.459C319.464 130.66 323.484 131.925 327.36 133.259C364.839 146.173 387.699 165.263 387.699 179.974C387.699 195.643 363.01 215.984 322.921 229.279ZM306.288 262.266C310.341 282.755 310.918 301.28 308.233 315.762C305.822 328.776 300.972 337.451 294.973 340.926C282.211 348.32 254.916 338.71 225.479 313.357C221.999 310.354 218.603 307.255 215.295 304.063C226.708 291.572 238.113 277.051 249.244 260.924C268.823 259.185 287.321 256.341 304.095 252.461C304.923 255.798 305.654 259.067 306.288 262.266ZM138.073 339.648C125.604 344.055 115.672 344.182 109.668 340.717C96.8931 333.344 91.5822 304.877 98.8263 266.693C99.6875 262.181 100.673 257.694 101.783 253.236C118.372 256.91 136.735 259.551 156.36 261.144C167.567 276.925 179.301 291.43 191.127 304.131C188.613 306.565 186.041 308.936 183.411 311.243C167.697 324.99 151.951 334.743 138.073 339.648ZM79.6553 229.182C59.9068 222.426 43.5976 213.647 32.419 204.066C22.3731 195.457 17.3027 186.909 17.3027 179.974C17.3027 165.214 39.2882 146.388 75.9581 133.593C80.4083 132.042 85.0658 130.577 89.8989 129.203C94.9678 145.701 101.615 162.952 109.638 180.395C101.511 198.097 94.7684 215.623 89.6505 232.316C86.2937 231.353 82.9609 230.309 79.6553 229.182ZM99.2377 95.7708C91.6265 56.8414 96.6811 27.4753 109.402 20.1049C122.951 12.2547 152.911 23.4473 184.49 51.5103C186.549 53.3443 188.575 55.2156 190.567 57.1232C178.8 69.7693 167.173 84.1666 156.066 99.8542C137.018 101.621 118.785 104.459 102.022 108.26C100.989 104.122 100.061 99.9562 99.2377 95.7708ZM273.937 138.947C269.977 132.102 265.871 125.343 261.621 118.675C274.543 120.311 286.924 122.482 298.55 125.135C295.06 136.333 290.709 148.038 285.588 160.04C281.845 152.932 277.96 145.899 273.937 138.947ZM202.695 69.5001C210.674 78.1531 218.667 87.813 226.528 98.2946C210.581 97.5408 194.608 97.5376 178.66 98.2851C186.529 87.9001 194.59 78.2528 202.695 69.5001ZM130.995 139.064C127.022 145.961 123.21 152.949 119.562 160.024C114.525 148.065 110.214 136.306 106.694 124.95C118.249 122.363 130.571 120.248 143.411 118.642C139.114 125.351 134.974 132.161 130.995 139.064ZM143.78 242.536C130.514 241.054 118.007 239.048 106.455 236.531C110.03 224.972 114.436 212.963 119.583 200.747C123.245 207.827 127.073 214.82 131.063 221.72C135.167 228.814 139.417 235.761 143.78 242.536ZM203.172 291.667C194.971 282.813 186.792 273.017 178.804 262.482C186.559 262.786 194.465 262.941 202.5 262.941C210.755 262.941 218.915 262.755 226.947 262.398C219.061 273.123 211.098 282.934 203.172 291.667ZM285.751 200.124C291.165 212.474 295.728 224.42 299.35 235.78C287.609 238.462 274.93 240.622 261.571 242.226C265.852 235.434 269.997 228.558 274.005 221.601C278.079 214.53 281.996 207.369 285.751 200.124ZM259.018 212.95C252.883 223.616 246.403 234.079 239.589 244.324C227.245 245.199 214.875 245.634 202.5 245.627C189.896 245.627 177.637 245.234 165.832 244.468C158.839 234.247 152.236 223.766 146.036 213.045C139.864 202.382 134.101 191.487 128.757 180.386C134.088 169.281 139.835 158.382 145.985 147.71L145.984 147.712C152.131 137.037 158.682 126.6 165.621 116.424C177.665 115.512 190.016 115.037 202.498 115.037C215.038 115.037 227.406 115.517 239.447 116.435C246.316 126.596 252.825 136.997 258.961 147.619C265.131 158.267 270.954 169.113 276.42 180.14C271.01 191.28 265.206 202.223 259.018 212.95ZM294.709 19.5871C308.27 27.4151 313.544 58.9821 305.024 100.378C304.477 103.021 303.871 105.708 303.204 108.437C286.4 104.555 268.154 101.669 249.051 99.8748C237.923 84.0146 226.392 69.5951 214.816 57.1121C217.85 54.1855 220.956 51.3346 224.131 48.5621C254.032 22.5211 281.977 12.2389 294.709 19.5871ZM202.5 143.779C222.473 143.779 238.665 159.984 238.665 179.974C238.665 199.964 222.473 216.169 202.5 216.169C182.527 216.169 166.335 199.964 166.335 179.974C166.335 159.984 182.527 143.779 202.5 143.779Z" fill="#00D8FF"/>
</g>
<defs>
<clipPath id="clip0_127_57">
<rect width="405" height="361" fill="white"/>
</clipPath>
</defs>
</svg>
