<svg width="361" height="361" viewBox="0 0 361 361" fill="none" xmlns="http://www.w3.org/2000/svg">
<g clip-path="url(#clip0_127_96)">
<path d="M276.391 0H84.6094C37.8809 0 0 37.8809 0 84.6094V276.391C0 323.119 37.8809 361 84.6094 361H276.391C323.119 361 361 323.119 361 276.391V84.6094C361 37.8809 323.119 0 276.391 0Z" fill="#CD6799"/>
<mask id="mask0_127_96" style="mask-type:luminance" maskUnits="userSpaceOnUse" x="39" y="74" width="283" height="213">
<path d="M39.4844 74.7383H321.516V286.133H39.4844V74.7383Z" fill="white"/>
</mask>
<g mask="url(#mask0_127_96)">
<path d="M282.182 196.242C272.348 196.292 263.802 198.661 256.646 202.161C254.02 196.962 251.394 192.328 250.93 188.93C250.416 184.966 249.798 182.546 250.416 177.809C251.033 173.073 253.814 166.329 253.762 165.815C253.71 165.3 253.144 162.88 247.481 162.828C241.818 162.776 236.927 163.91 236.361 165.403C235.794 166.895 234.714 170.293 233.993 173.795C233.014 178.943 222.665 197.323 216.745 206.95C214.84 203.192 213.193 199.897 212.832 197.271C212.317 193.307 211.7 190.887 212.317 186.151C212.935 181.414 215.716 174.669 215.664 174.154C215.612 173.64 215.046 171.22 209.383 171.169C203.72 171.118 198.828 172.249 198.262 173.743C197.695 175.236 197.078 178.737 195.893 182.134C194.71 185.533 180.964 216.218 177.36 224.146C175.903 227.354 174.376 230.53 172.778 233.67C172.778 233.67 172.726 233.825 172.572 234.082C172.07 235.067 171.554 236.045 171.027 237.016V237.068C170.255 238.459 169.43 239.745 169.019 239.745C168.71 239.745 168.144 236.039 169.122 230.994C171.182 220.336 176.072 203.758 176.021 203.192C176.021 202.883 176.948 200 172.829 198.506C168.813 197.013 167.371 199.485 167.01 199.485C166.651 199.485 166.393 200.361 166.393 200.361C166.393 200.361 170.873 181.723 157.847 181.723C149.712 181.723 138.489 190.629 132.93 198.661C126.608 202.101 120.292 205.55 113.982 209.009C110.946 210.708 107.805 212.408 104.869 214.004C104.663 213.798 104.457 213.54 104.252 213.334C88.4972 196.498 59.3578 184.606 60.5931 162.004C61.057 153.766 63.8886 132.143 116.557 105.886C159.906 84.5206 194.401 90.4404 200.373 103.569C208.919 122.31 181.89 157.113 137.1 162.158C120.006 164.063 111.048 157.474 108.784 155.003C106.415 152.428 106.054 152.274 105.178 152.789C103.737 153.56 104.663 155.877 105.178 157.216C106.518 160.717 112.026 166.895 121.344 169.932C129.582 172.61 149.609 174.104 173.858 164.733C200.991 154.23 222.203 125.037 215.973 100.584C209.744 75.7677 168.556 67.5818 129.582 81.4309C106.413 89.6691 81.2899 102.642 63.2188 119.529C41.7492 139.61 38.3521 157.062 39.7425 164.372C44.7359 190.32 80.5172 207.207 94.8303 219.718C94.1097 220.13 93.4398 220.491 92.8744 220.799C85.7178 224.352 58.4313 238.613 51.6344 253.698C43.9123 270.791 52.8711 283.044 58.7909 284.691C77.1709 289.789 96.0655 280.624 106.209 265.487C116.352 250.351 115.115 230.685 110.429 221.675C110.378 221.562 110.309 221.457 110.224 221.366C112.078 220.285 113.982 219.152 115.836 218.071C119.243 216.058 122.693 214.118 126.184 212.253C124.434 217.041 123.146 222.755 122.529 230.994C121.757 240.673 125.721 253.234 130.92 258.177C133.237 260.339 135.966 260.391 137.717 260.391C143.792 260.391 146.521 255.346 149.558 249.373C153.264 242.062 156.612 233.567 156.612 233.567C156.612 233.567 152.441 256.53 163.767 256.53C167.886 256.53 172.056 251.176 173.91 248.447V248.498C173.91 248.498 174.013 248.344 174.219 247.983C174.631 247.313 174.888 246.901 174.888 246.901V246.799C176.536 243.916 180.242 237.377 185.751 226.513C192.856 212.511 199.704 195.006 199.704 195.006C199.704 195.006 200.321 199.279 202.432 206.383C203.667 210.555 206.242 215.136 208.301 219.564C206.654 221.881 205.625 223.167 205.625 223.167L205.676 223.219C204.337 224.969 202.896 226.874 201.3 228.727C195.687 235.421 188.995 243.093 188.068 245.307C186.987 247.932 187.245 249.836 189.304 251.382C190.797 252.514 193.473 252.668 196.202 252.514C201.248 252.153 204.801 250.918 206.551 250.145C209.28 249.168 212.473 247.674 215.458 245.46C220.967 241.393 224.314 235.575 224.005 227.904C223.85 223.682 222.459 219.461 220.761 215.496C221.276 214.775 221.739 214.055 222.253 213.334C230.955 200.617 237.699 186.665 237.699 186.665C237.699 186.665 238.316 190.938 240.427 198.044C241.457 201.647 243.568 205.56 245.422 209.37C237.236 216.012 232.191 223.734 230.389 228.78C227.145 238.15 229.668 242.371 234.455 243.349C236.619 243.813 239.707 242.784 241.973 241.805C244.855 240.879 248.254 239.282 251.497 236.913C257.005 232.846 262.309 227.183 262 219.512C261.845 216.012 260.918 212.561 259.631 209.215C266.582 206.333 275.54 204.736 286.97 206.075C311.477 208.958 316.316 224.249 315.389 230.685C314.462 237.119 309.314 240.621 307.614 241.702C305.917 242.784 305.35 243.143 305.505 243.916C305.711 245.049 306.534 244.996 307.975 244.79C309.983 244.431 320.846 239.591 321.31 227.75C322.083 212.614 307.667 196.086 282.182 196.242ZM93.131 259.979C84.9972 268.834 73.6709 272.181 68.779 269.35C63.5276 266.311 65.5864 253.234 75.576 243.864C81.6495 238.15 89.4759 232.846 94.6751 229.603C95.8597 228.883 97.6097 227.853 99.7207 226.566C100.082 226.36 100.288 226.257 100.288 226.257L101.523 225.484C105.178 238.871 101.677 250.661 93.131 259.979ZM152.339 219.718C149.508 226.618 143.588 244.276 139.983 243.299C136.895 242.474 134.99 229.088 139.366 215.857C141.58 209.215 146.264 201.287 148.993 198.198C153.421 193.255 158.311 191.608 159.496 193.616C160.989 196.242 154.091 215.393 152.339 219.718ZM201.198 243.093C200.014 243.71 198.881 244.122 198.367 243.813C198.006 243.607 198.881 242.784 198.881 242.784C198.881 242.784 205.009 236.193 207.428 233.207C208.817 231.456 210.466 229.397 212.216 227.08V227.75C212.216 235.627 204.597 240.929 201.198 243.093ZM238.885 234.494C238.009 233.876 238.164 231.817 241.099 225.381C242.231 222.858 244.909 218.638 249.491 214.569C250.005 216.218 250.366 217.813 250.314 219.306C250.263 229.243 243.158 232.949 238.885 234.494Z" fill="white"/>
</g>
</g>
<defs>
<clipPath id="clip0_127_96">
<rect width="361" height="361" fill="white"/>
</clipPath>
</defs>
</svg>
