<svg width="361" height="361" viewBox="0 0 361 361" fill="none" xmlns="http://www.w3.org/2000/svg">
  <path d="M180.5 6.48682C84.3274 6.48682 6.48682 84.3274 6.48682 180.5C6.48682 276.673 84.3274 354.513 180.5 354.513C276.673 354.513 354.513 276.673 354.513 180.5C354.513 84.3274 276.673 6.48682 180.5 6.48682ZM274.417 107.172C266.238 107.454 260.879 102.659 260.597 95.3267C260.597 92.5063 261.161 90.2501 263.135 87.4298C264.827 84.0454 265.391 83.4814 265.391 82.0712C265.109 77.5587 258.341 77.2767 256.367 77.2767C230.138 78.1228 223.369 113.377 217.728 142.144L214.908 157.374C229.856 159.63 240.573 156.809 246.495 153.143C254.956 147.784 244.239 142.144 245.367 135.939C246.777 129.734 252.418 126.632 256.931 126.35C263.417 126.068 267.93 132.837 267.648 139.606C267.366 150.605 252.7 166.117 223.087 165.27C219.42 165.27 216.318 164.988 213.216 164.706L207.575 195.448C202.499 218.574 196.012 250.444 172.321 278.083C152.015 302.338 131.427 306.004 122.12 306.286C104.916 306.85 93.3524 297.543 93.0704 285.416C92.7884 273.57 103.224 267.084 109.992 266.802C119.299 266.52 125.504 273.288 125.786 280.903C126.068 287.39 122.684 289.364 120.427 290.774C119.017 291.902 116.761 293.313 116.761 295.851C116.761 296.979 118.171 299.517 121.838 299.517C129.17 299.235 133.965 295.569 137.349 293.313C154.271 279.211 160.758 254.674 169.219 210.395L170.911 199.678C173.731 185.295 177.116 168.937 181.91 152.861C170.065 143.836 163.014 132.837 146.938 128.606C135.939 125.504 129.452 128.042 124.658 133.965C119.017 141.016 120.992 150.041 126.35 155.399L135.093 165.27C146.092 177.962 152.015 187.551 149.759 200.806C146.656 221.395 121.556 237.47 91.9423 228.445C66.5595 220.549 62.047 202.781 65.1493 192.909C67.6876 184.167 74.7384 182.474 81.5071 184.731C88.8399 186.987 91.6603 195.73 89.404 202.499C89.122 203.345 88.8399 204.473 87.9939 205.883C87.1478 207.857 85.7376 209.267 84.8915 211.524C83.1993 216.882 90.5321 220.549 95.6087 222.241C106.89 225.625 117.889 219.702 120.709 210.677C123.248 202.216 117.889 196.294 115.915 194.038L105.198 182.474C100.403 177.116 89.404 161.886 94.7626 144.682C96.7368 138.195 100.967 131.145 107.172 126.632C120.145 116.761 134.529 115.351 148.067 119.299C165.552 124.376 174.013 135.939 185.013 144.964C191.217 127.196 199.678 109.428 212.37 94.7626C223.933 81.2251 239.163 71.636 256.931 70.7899C274.699 70.2259 287.954 78.1228 288.518 90.8142C288.236 96.4548 285.134 106.89 274.417 107.172Z" fill="#f3f4f6"/>
</svg>