<svg width="361" height="361" viewBox="0 0 361 361" fill="none" xmlns="http://www.w3.org/2000/svg">
<g clip-path="url(#clip0_127_50)">
<path d="M276.391 0H84.6094C37.8809 0 0 37.8809 0 84.6094V276.391C0 323.119 37.8809 361 84.6094 361H276.391C323.119 361 361 323.119 361 276.391V84.6094C361 37.8809 323.119 0 276.391 0Z" fill="#242938"/>
<path fill-rule="evenodd" clip-rule="evenodd" d="M117.043 155.117C125.504 121.273 146.656 104.352 180.5 104.352C231.266 104.352 237.611 142.426 262.994 148.771C279.916 153.004 294.723 146.658 307.414 129.734C298.953 163.578 277.801 180.5 243.957 180.5C193.191 180.5 186.846 142.426 161.463 136.08C144.541 131.85 129.734 138.195 117.043 155.117ZM53.5859 231.266C62.0469 197.422 83.1992 180.5 117.043 180.5C167.809 180.5 174.154 218.574 199.537 224.92C216.459 229.152 231.266 222.807 243.957 205.883C235.496 239.727 214.344 256.648 180.5 256.648C129.734 256.648 123.389 218.574 98.0059 212.229C81.084 207.996 66.2773 214.342 53.5859 231.266Z" fill="url(#paint0_linear_127_50)"/>
</g>
<defs>
<linearGradient id="paint0_linear_127_50" x1="121.979" y1="104.352" x2="230.561" y2="261.584" gradientUnits="userSpaceOnUse">
<stop stop-color="#32B1C1"/>
<stop offset="1" stop-color="#14C6B7"/>
</linearGradient>
<clipPath id="clip0_127_50">
<rect width="361" height="361" fill="white"/>
</clipPath>
</defs>
</svg>
