<svg width="361" height="361" viewBox="0 0 361 361" fill="none" xmlns="http://www.w3.org/2000/svg">
<path d="M63.9365 132.555H345.037V340.327H63.9365V132.555Z" fill="white"/>
<path d="M4.23047 180.246V356.516H356.77V3.97668H4.23047V180.246ZM288.321 166.145C296.764 168.104 304.439 172.52 310.375 178.836C313.643 182.239 316.485 186.027 318.836 190.117C318.836 190.569 303.607 200.863 294.328 206.616C293.989 206.842 292.636 205.375 291.141 203.147C289.447 200.224 287.04 197.778 284.145 196.037C281.25 194.296 277.961 193.317 274.586 193.191C263.897 192.458 257.015 198.071 257.071 207.293C256.986 209.589 257.511 211.866 258.594 213.893C260.935 218.772 265.307 221.677 279.014 227.599C304.255 238.457 315.057 245.621 321.769 255.802C329.271 267.084 330.935 285.303 325.859 298.784C320.218 313.45 306.399 323.405 286.854 326.705C277.927 327.728 268.908 327.633 260.005 326.423C246.359 324.174 233.789 317.622 224.13 307.724C220.887 304.143 214.569 294.807 214.964 294.13C215.992 293.363 217.076 292.675 218.208 292.072L231.266 284.852L241.391 278.985L243.506 282.116C247.077 287.221 251.619 291.572 256.874 294.92C268.155 300.843 283.554 300.025 291.169 293.172C293.726 290.66 295.321 287.332 295.676 283.766C296.032 280.2 295.126 276.622 293.115 273.655C290.295 269.735 284.654 266.435 268.889 259.553C250.698 251.713 242.857 246.862 235.694 239.134C231.223 234.034 227.921 228.018 226.02 221.507C224.603 214.069 224.393 206.45 225.399 198.945C229.15 181.374 242.321 169.106 261.556 165.468C270.464 164.367 279.486 164.615 288.321 166.201V166.145ZM205.573 180.923V195.363H159.799V325.746H127.337V195.335H81.4506V181.233C81.3067 176.37 81.4197 171.503 81.7891 166.652C82.0147 166.398 109.992 166.398 143.836 166.398H205.403L205.573 180.923Z" fill="#007ACC"/>
</svg>
