<svg width="360" height="361" viewBox="0 0 360 361" fill="none" xmlns="http://www.w3.org/2000/svg">
<g clip-path="url(#clip0_127_59)">
<path d="M358.809 53.2903L189.699 355.348C186.207 361.584 177.237 361.621 173.693 355.415L1.2305 53.3184C-2.63106 46.5563 3.15847 38.3643 10.831 39.7352L180.122 69.9595C181.202 70.1534 182.308 70.1515 183.388 69.9539L349.138 39.7774C356.785 38.3853 362.602 46.5142 358.809 53.2903Z" fill="url(#paint0_linear_127_59)"/>
<path d="M260.764 0.0885241L135.619 24.5831C134.619 24.7793 133.713 25.3015 133.042 26.0677C132.372 26.834 131.975 27.801 131.915 28.8168L124.217 158.687C124.174 159.399 124.299 160.112 124.58 160.767C124.862 161.423 125.292 162.004 125.838 162.465C126.384 162.926 127.029 163.253 127.723 163.421C128.418 163.588 129.142 163.592 129.838 163.432L164.68 155.4C167.94 154.648 170.886 157.517 170.215 160.791L159.864 211.425C159.168 214.833 162.37 217.746 165.701 216.735L187.222 210.205C190.558 209.193 193.764 212.115 193.058 215.525L176.608 295.059C175.579 300.035 182.204 302.747 184.965 298.482L186.812 295.634L288.787 92.35C290.496 88.9465 287.55 85.0654 283.809 85.7874L247.943 92.7012C244.574 93.3501 241.706 90.2149 242.657 86.9224L266.065 5.86593C267.017 2.56496 264.137 -0.571671 260.764 0.0885241Z" fill="url(#paint1_linear_127_59)"/>
</g>
<defs>
<linearGradient id="paint0_linear_127_59" x1="-298.079" y1="2491.77" x2="17913.7" y2="27252.8" gradientUnits="userSpaceOnUse">
<stop stop-color="#41D1FF"/>
<stop offset="1" stop-color="#BD34FE"/>
</linearGradient>
<linearGradient id="paint1_linear_127_59" x1="7284.55" y1="673.942" x2="11028.3" y2="26384" gradientUnits="userSpaceOnUse">
<stop stop-color="#FFEA83"/>
<stop offset="0.08333" stop-color="#FFDD35"/>
<stop offset="1" stop-color="#FFA800"/>
</linearGradient>
<clipPath id="clip0_127_59">
<rect width="360" height="361" fill="white"/>
</clipPath>
</defs>
</svg>
