<svg width="361" height="361" viewBox="0 0 361 361" fill="none" xmlns="http://www.w3.org/2000/svg">
<g clip-path="url(#clip0_127_68)">
<mask id="mask0_127_68" style="mask-type:alpha" maskUnits="userSpaceOnUse" x="-1" y="0" width="362" height="361">
<path fill-rule="evenodd" clip-rule="evenodd" d="M255.991 358.535C258.864 359.655 261.936 360.171 265.017 360.053C268.098 359.935 271.122 359.184 273.9 357.847L348.224 322.083C352.052 320.24 355.281 317.354 357.541 313.757C359.802 310.161 361 305.999 361 301.751V59.252C361.001 55.0035 359.802 50.8411 357.542 47.2437C355.282 43.6464 352.052 40.7603 348.224 38.9175L273.9 3.15875C269.701 1.13802 264.976 0.472695 260.382 1.25487C255.787 2.03704 251.55 4.22803 248.255 7.5246L105.97 137.332L43.9969 90.2867C41.2008 88.1651 37.7505 87.0887 34.2441 87.2443C30.7376 87.3999 27.3962 88.7775 24.799 91.1384L4.92144 109.219C3.37238 110.628 2.13445 112.345 1.28683 114.26C0.439216 116.174 0.000582401 118.245 -0.00101036 120.339C-0.00260311 122.433 0.43288 124.504 1.27758 126.42C2.12228 128.336 3.3576 130.055 4.90452 131.466L58.6512 180.5L4.90734 229.537C3.36127 230.948 2.12669 232.667 1.28251 234.582C0.438333 236.498 0.0031319 238.569 0.00472449 240.662C0.00631708 242.756 0.444668 244.826 1.29176 246.74C2.13885 248.655 3.37604 250.371 4.92426 251.781L24.8018 269.862C27.3987 272.223 30.7399 273.601 34.2464 273.757C37.7528 273.913 41.2033 272.837 43.9997 270.716L105.973 223.673L248.258 353.478C250.46 355.68 253.091 357.401 255.991 358.535ZM270.804 98.5502L162.845 180.5L270.806 262.453L270.804 98.5502Z" fill="white"/>
</mask>
<g mask="url(#mask0_127_68)">
<path d="M348.227 38.9767L273.844 3.15876C269.643 1.13543 264.916 0.468702 260.32 1.25093C255.723 2.03316 251.483 4.22563 248.188 7.5246L4.68736 229.537C3.14012 230.948 1.9045 232.666 1.05958 234.582C0.214651 236.497 -0.220957 238.569 -0.219364 240.662C-0.217771 242.756 0.220988 244.827 1.06883 246.741C1.91666 248.656 3.1549 250.372 4.70428 251.781L24.5931 269.862C27.1907 272.226 30.5342 273.606 34.0432 273.762C37.5521 273.918 41.005 272.84 43.8023 270.716L337.033 48.264C346.87 40.8015 361 47.8184 361 60.1657V59.3027C361 55.0555 359.801 50.8945 357.542 47.2983C355.282 43.7021 352.053 40.8195 348.227 38.9767Z" fill="#0065A9"/>
<g filter="url(#filter0_d_127_68)">
<path d="M348.227 322.026L273.844 357.839C269.643 359.863 264.917 360.53 260.321 359.749C255.724 358.968 251.484 356.776 248.188 353.478L4.68736 131.463C3.14012 130.053 1.9045 128.334 1.05958 126.418C0.214651 124.503 -0.220957 122.432 -0.219364 120.338C-0.217771 118.244 0.220988 116.173 1.06883 114.259C1.91666 112.344 3.1549 110.628 4.70428 109.219L24.5931 91.1385C27.1907 88.7743 30.5342 87.3944 34.0432 87.2383C37.5521 87.0821 41.005 88.1597 43.8023 90.2839L337.033 312.733C346.87 320.199 361 313.182 361 300.834V301.697C361 305.945 359.801 310.106 357.542 313.702C355.282 317.298 352.053 320.183 348.227 322.026Z" fill="#007ACC"/>
</g>
<g filter="url(#filter1_d_127_68)">
<path d="M273.847 357.847C269.644 359.866 264.918 360.531 260.322 359.748C255.725 358.966 251.485 356.775 248.188 353.478C256.513 361.804 270.75 355.907 270.75 344.132V16.8655C270.75 5.09067 256.513 -0.8066 248.188 7.52178C251.485 4.22537 255.725 2.0345 260.322 1.25191C264.918 0.469324 269.644 1.13366 273.847 3.15312L348.216 38.9203C352.045 40.7619 355.277 43.6475 357.539 47.2449C359.8 50.8424 361 55.0054 361 59.2548V301.751C361 306 359.8 310.163 357.539 313.761C355.277 317.358 352.045 320.244 348.216 322.085L273.847 357.847Z" fill="#1F9CF0"/>
</g>
<path opacity="0.25" fill-rule="evenodd" clip-rule="evenodd" d="M255.774 358.535C258.646 359.654 261.718 360.171 264.799 360.052C267.879 359.934 270.902 359.183 273.68 357.847L348.004 322.083C351.832 320.24 355.062 317.354 357.322 313.756C359.582 310.159 360.781 305.997 360.78 301.748V59.252C360.781 55.0035 359.582 50.8411 357.322 47.2437C355.062 43.6464 351.832 40.7603 348.004 38.9175L273.68 3.15875C269.481 1.13802 264.757 0.472695 260.162 1.25487C255.568 2.03704 251.33 4.22803 248.035 7.5246L105.75 137.332L43.7769 90.2895C40.9808 88.1679 37.5305 87.0916 34.0241 87.2471C30.5177 87.4027 27.1762 88.7803 24.579 91.1412L4.70145 109.222C3.15278 110.631 1.91519 112.348 1.06783 114.263C0.22046 116.178 -0.218038 118.248 -0.219631 120.342C-0.221223 122.436 0.214124 124.507 1.05858 126.423C1.90303 128.339 3.138 130.057 4.68453 131.469L58.4312 180.5L4.68735 229.534C3.14044 230.945 1.90512 232.664 1.06041 234.58C0.215713 236.496 -0.21977 238.567 -0.218178 240.661C-0.216585 242.755 0.222049 244.826 1.06966 246.74C1.91728 248.655 3.15521 250.372 4.70427 251.781L24.5818 269.862C27.1787 272.223 30.52 273.601 34.0264 273.757C37.5328 273.913 40.9833 272.837 43.7797 270.716L105.756 223.671L248.041 353.478C250.242 355.679 252.875 357.401 255.774 358.535ZM270.586 98.5474L162.625 180.5L270.586 262.45V98.5474Z" fill="url(#paint0_linear_127_68)"/>
</g>
</g>
<defs>
<filter id="filter0_d_127_68" x="-1.26112" y="86.1816" width="363.303" height="274.927" filterUnits="userSpaceOnUse" color-interpolation-filters="sRGB">
<feFlood flood-opacity="0" result="BackgroundImageFix"/>
<feColorMatrix in="SourceAlpha" type="matrix" values="0 0 0 0 0 0 0 0 0 0 0 0 0 0 0 0 0 0 127 0" result="hardAlpha"/>
<feOffset/>
<feGaussianBlur stdDeviation="0.520875"/>
<feColorMatrix type="matrix" values="0 0 0 0 0 0 0 0 0 0 0 0 0 0 0 0 0 0 0.25 0"/>
<feBlend mode="overlay" in2="BackgroundImageFix" result="effect1_dropShadow_127_68"/>
<feBlend mode="normal" in="SourceGraphic" in2="effect1_dropShadow_127_68" result="shape"/>
</filter>
<filter id="filter1_d_127_68" x="247.146" y="-0.109133" width="114.896" height="361.218" filterUnits="userSpaceOnUse" color-interpolation-filters="sRGB">
<feFlood flood-opacity="0" result="BackgroundImageFix"/>
<feColorMatrix in="SourceAlpha" type="matrix" values="0 0 0 0 0 0 0 0 0 0 0 0 0 0 0 0 0 0 127 0" result="hardAlpha"/>
<feOffset/>
<feGaussianBlur stdDeviation="0.520875"/>
<feColorMatrix type="matrix" values="0 0 0 0 0 0 0 0 0 0 0 0 0 0 0 0 0 0 0.25 0"/>
<feBlend mode="overlay" in2="BackgroundImageFix" result="effect1_dropShadow_127_68"/>
<feBlend mode="normal" in="SourceGraphic" in2="effect1_dropShadow_127_68" result="shape"/>
</filter>
<linearGradient id="paint0_linear_127_68" x1="180.28" y1="0.930708" x2="180.28" y2="360.069" gradientUnits="userSpaceOnUse">
<stop stop-color="white"/>
<stop offset="1" stop-color="white" stop-opacity="0"/>
</linearGradient>
<clipPath id="clip0_127_68">
<rect width="361" height="361" fill="white"/>
</clipPath>
</defs>
</svg>
