<svg width="361" height="361" viewBox="0 0 361 361" fill="none" xmlns="http://www.w3.org/2000/svg">
<g clip-path="url(#clip0_133_33)">
<path d="M276.391 0H84.6094C37.8809 0 0 37.8809 0 84.6094V276.391C0 323.119 37.8809 361 84.6094 361H276.391C323.119 361 361 323.119 361 276.391V84.6094C361 37.8809 323.119 0 276.391 0Z" fill="#0073AA"/>
<path d="M59.5283 180.492C59.5283 228.373 87.355 269.753 127.705 289.363L70.0016 131.262C63.086 146.752 59.5172 163.527 59.5283 180.492ZM262.159 174.387C262.159 159.438 256.789 149.085 252.184 141.025C246.051 131.061 240.303 122.623 240.303 112.659C240.303 101.538 248.737 91.1877 260.617 91.1877C261.154 91.1877 261.662 91.254 262.185 91.2836C240.663 71.5668 211.99 59.5283 180.496 59.5283C138.236 59.5283 101.055 81.2109 79.4257 114.053C82.2629 114.138 84.938 114.199 87.2097 114.199C99.863 114.199 119.449 112.662 119.449 112.662C125.969 112.278 126.739 121.856 120.224 122.627C120.224 122.627 113.671 123.399 106.379 123.781L150.43 254.81L176.903 175.414L158.056 123.776C151.542 123.394 145.372 122.623 145.372 122.623C138.852 122.241 139.617 112.274 146.136 112.659C146.136 112.659 166.112 114.193 177.998 114.193C190.65 114.193 210.237 112.659 210.237 112.659C216.764 112.274 217.529 121.852 211.013 122.623C211.013 122.623 204.446 123.394 197.168 123.776L240.884 253.813L252.95 213.493C258.18 196.76 262.159 184.743 262.159 174.387Z" fill="white"/>
<path d="M182.62 191.073L146.325 296.539C157.422 299.807 168.929 301.467 180.497 301.467C194.179 301.472 207.762 299.153 220.667 294.61C220.331 294.081 220.044 293.523 219.807 292.943L182.62 191.073ZM286.641 122.455C287.19 126.578 287.463 130.733 287.456 134.893C287.456 147.168 285.163 160.968 278.258 178.223L241.307 285.055C277.271 264.083 301.46 225.122 301.46 180.494C301.462 159.462 296.091 139.684 286.641 122.455Z" fill="white"/>
<path d="M180.497 39.4844C102.744 39.4844 39.4844 102.74 39.4844 180.492C39.4844 258.253 102.744 321.506 180.497 321.506C258.246 321.506 321.516 258.253 321.516 180.492C321.513 102.74 258.246 39.4844 180.497 39.4844ZM180.497 315.043C106.309 315.043 45.9499 254.683 45.9499 180.492C45.9499 106.305 106.307 45.9499 180.497 45.9499C254.681 45.9499 315.036 106.305 315.036 180.492C315.036 254.683 254.681 315.043 180.497 315.043Z" fill="white"/>
</g>
<defs>
<clipPath id="clip0_133_33">
<rect width="361" height="361" fill="white"/>
</clipPath>
</defs>
</svg>
