<svg width="361" height="361" viewBox="0 0 361 361" fill="none" xmlns="http://www.w3.org/2000/svg">
<g clip-path="url(#clip0_141_38)">
<path d="M361 180.5C361 80.8132 280.187 0 180.5 0C80.8132 0 0 80.8132 0 180.5C0 270.592 66.0066 345.267 152.297 358.807V232.676H106.467V180.5H152.297V140.734C152.297 95.4958 179.245 70.5078 220.475 70.5078C240.223 70.5078 260.879 74.0332 260.879 74.0332V118.453H238.119C215.696 118.453 208.703 132.367 208.703 146.642V180.5H258.764L250.761 232.676H208.703V358.807C294.993 345.267 361 270.593 361 180.5Z" fill="#1877F2"/>
<path d="M250.761 232.676L258.764 180.5H208.703V146.642C208.703 132.366 215.696 118.453 238.119 118.453H260.879V74.0332C260.879 74.0332 240.223 70.5078 220.474 70.5078C179.245 70.5078 152.297 95.4958 152.297 140.734V180.5H106.467V232.676H152.297V358.807C161.627 360.269 171.056 361.002 180.5 361C189.944 361.002 199.373 360.269 208.703 358.807V232.676H250.761Z" fill="white"/>
</g>
<defs>
<clipPath id="clip0_141_38">
<rect width="361" height="361" fill="white"/>
</clipPath>
</defs>
</svg>
