<svg width="361" height="361" viewBox="0 0 361 361" fill="none" xmlns="http://www.w3.org/2000/svg">
<path fill-rule="evenodd" clip-rule="evenodd" d="M180.5 14.3921C86.4511 14.3921 10.187 90.6392 10.187 184.705C10.187 259.957 58.9869 323.794 126.657 346.317C135.166 347.897 138.291 342.623 138.291 338.124C138.291 334.063 138.133 320.647 138.06 306.416C90.6787 316.718 80.6807 286.321 80.6807 286.321C72.9333 266.635 61.7705 261.401 61.7705 261.401C46.3152 250.83 62.9353 251.05 62.9353 251.05C80.0349 252.249 89.043 268.601 89.043 268.601C104.233 294.632 128.886 287.108 138.604 282.759C140.133 271.751 144.547 264.235 149.417 259.982C111.589 255.681 71.8193 241.075 71.8193 175.815C71.8193 157.221 78.4752 142.028 89.3701 130.098C87.5989 125.811 81.7694 108.489 91.0172 85.0296C91.0172 85.0296 105.316 80.4523 137.863 102.487C151.451 98.711 166.023 96.8129 180.5 96.748C194.968 96.8129 209.549 98.7053 223.163 102.482C255.67 80.4466 269.952 85.024 269.952 85.024C279.222 108.481 273.393 125.806 271.624 130.093C282.545 142.023 289.153 157.216 289.153 175.81C289.153 241.224 249.31 255.625 211.385 259.844C217.497 265.129 222.94 275.497 222.94 291.383C222.94 314.172 222.743 332.512 222.743 338.122C222.743 342.654 225.811 347.965 234.441 346.292C302.072 323.747 350.816 259.928 350.816 184.705C350.813 90.6449 274.557 14.3921 180.5 14.3921Z" fill="#181616"/>
<path d="M74.6932 258.922C74.3181 259.768 72.9869 260.022 71.7741 259.443C70.5332 258.891 69.8422 257.737 70.2427 256.888C70.6094 256.014 71.9434 255.774 73.1758 256.358C74.4168 256.914 75.1219 258.078 74.6903 258.924L74.6932 258.922ZM81.5917 266.618C80.7822 267.371 79.1944 267.022 78.117 265.829C77.0002 264.644 76.7915 263.056 77.6178 262.292C78.4583 261.542 79.9982 261.897 81.115 263.082C82.2262 264.283 82.4462 265.857 81.5945 266.621L81.5917 266.618ZM88.3096 276.424C87.2661 277.152 85.557 276.472 84.5022 274.958C83.4587 273.441 83.4587 271.621 84.5304 270.897C85.5824 270.169 87.2661 270.826 88.3378 272.327C89.3757 273.864 89.3757 275.686 88.3096 276.424ZM97.5067 285.904C96.576 286.933 94.5848 286.657 93.1295 285.255C91.6432 283.881 91.2287 281.927 92.1622 280.9C93.1098 279.868 95.1094 280.156 96.5732 281.549C98.0595 282.92 98.5079 284.877 97.5123 285.901L97.5067 285.904ZM110.198 291.406C109.783 292.74 107.871 293.346 105.939 292.777C104.013 292.193 102.752 290.633 103.147 289.285C103.542 287.94 105.468 287.311 107.412 287.917C109.338 288.498 110.599 290.049 110.198 291.406ZM124.139 292.424C124.187 293.829 122.551 294.991 120.529 295.019C118.49 295.067 116.84 293.927 116.82 292.545C116.82 291.127 118.422 289.979 120.458 289.939C122.481 289.903 124.142 291.031 124.142 292.421L124.139 292.424ZM137.107 290.219C137.349 291.586 135.942 292.994 133.931 293.369C131.957 293.736 130.124 292.884 129.87 291.527C129.627 290.123 131.06 288.715 133.034 288.352C135.048 288.005 136.853 288.828 137.107 290.219Z" fill="#181616"/>
</svg>
