<svg width="361" height="361" viewBox="0 0 361 361" fill="none" xmlns="http://www.w3.org/2000/svg">
<g clip-path="url(#clip0_141_33)">
<path d="M276.391 0H84.6094C37.8809 0 0 37.8809 0 84.6094V276.391C0 323.119 37.8809 361 84.6094 361H276.391C323.119 361 361 323.119 361 276.391V84.6094C361 37.8809 323.119 0 276.391 0Z" fill="url(#paint0_radial_141_33)"/>
<path d="M276.391 0H84.6094C37.8809 0 0 37.8809 0 84.6094V276.391C0 323.119 37.8809 361 84.6094 361H276.391C323.119 361 361 323.119 361 276.391V84.6094C361 37.8809 323.119 0 276.391 0Z" fill="url(#paint1_radial_141_33)"/>
<path d="M180.513 39.4844C142.216 39.4844 137.408 39.6522 122.368 40.3361C107.355 41.0243 97.1076 43.4004 88.1418 46.8877C78.8658 50.4892 70.9985 55.3077 63.1609 63.1482C55.3162 70.9873 50.4977 78.8545 46.8849 88.1263C43.3877 97.0949 41.0088 107.347 40.3333 122.352C39.6606 137.394 39.4844 142.203 39.4844 180.501C39.4844 218.8 39.6536 223.592 40.3361 238.632C41.0271 253.645 43.4032 263.892 46.8877 272.858C50.4921 282.134 55.3106 290.001 63.151 297.839C70.9873 305.684 78.8545 310.514 88.1235 314.115C97.0963 317.602 107.345 319.979 122.355 320.667C137.397 321.351 142.2 321.518 180.496 321.518C218.797 321.518 223.589 321.351 238.629 320.667C253.642 319.979 263.901 317.602 272.874 314.115C282.145 310.514 290.001 305.684 297.836 297.839C305.681 290.001 310.498 282.134 314.112 272.862C317.578 263.892 319.959 253.642 320.664 238.635C321.339 223.594 321.516 218.8 321.516 180.501C321.516 142.203 321.339 137.397 320.664 122.355C319.959 107.343 317.578 97.0963 314.112 88.1305C310.498 78.8545 305.681 70.9873 297.836 63.1482C289.993 55.3049 282.148 50.4864 272.865 46.8891C263.875 43.4004 253.622 41.0229 238.61 40.3361C223.568 39.6522 218.779 39.4844 180.469 39.4844H180.513ZM167.862 64.8968C171.617 64.8912 175.807 64.8968 180.513 64.8968C218.165 64.8968 222.627 65.0322 237.496 65.7076C251.245 66.3366 258.707 68.6337 263.678 70.5642C270.259 73.1194 274.951 76.1752 279.884 81.1122C284.819 86.0477 287.874 90.7478 290.436 97.329C292.366 102.293 294.666 109.755 295.292 123.504C295.968 138.37 296.114 142.835 296.114 180.469C296.114 218.103 295.968 222.569 295.292 237.434C294.663 251.183 292.366 258.645 290.436 263.61C287.881 270.192 284.819 274.878 279.884 279.81C274.948 284.746 270.262 287.8 263.678 290.357C258.713 292.296 251.245 294.587 237.496 295.216C222.63 295.892 218.165 296.038 180.513 296.038C142.859 296.038 138.396 295.892 123.531 295.216C109.782 294.582 102.32 292.284 97.3445 290.354C90.7647 287.797 86.0632 284.743 81.1277 279.807C76.1921 274.872 73.1378 270.183 70.5755 263.599C68.645 258.634 66.345 251.171 65.7189 237.422C65.0435 222.556 64.9081 218.092 64.9081 180.434C64.9081 142.776 65.0435 138.335 65.7189 123.469C66.3479 109.72 68.645 102.257 70.5755 97.2867C73.1321 90.7055 76.1922 86.0054 81.1291 81.0699C86.0661 76.1343 90.7647 73.0785 97.3459 70.5177C102.317 68.5787 109.782 66.2872 123.531 65.6555C136.54 65.0674 141.581 64.8912 167.862 64.8615V64.8968ZM255.787 88.311C246.445 88.311 238.865 95.8836 238.865 105.227C238.865 114.57 246.445 122.149 255.787 122.149C265.129 122.149 272.709 114.57 272.709 105.227C272.709 95.885 265.129 88.3054 255.787 88.3054V88.311ZM180.513 108.083C140.521 108.083 108.096 140.508 108.096 180.501C108.096 220.495 140.521 252.904 180.513 252.904C220.506 252.904 252.92 220.495 252.92 180.501C252.92 140.509 220.503 108.083 180.51 108.083H180.513ZM180.513 133.495C206.472 133.495 227.519 154.539 227.519 180.501C227.519 206.461 206.472 227.508 180.513 227.508C154.553 227.508 133.508 206.461 133.508 180.501C133.508 154.539 154.552 133.495 180.513 133.495Z" fill="white"/>
</g>
<defs>
<radialGradient id="paint0_radial_141_33" cx="0" cy="0" r="1" gradientUnits="userSpaceOnUse" gradientTransform="translate(95.8906 388.804) rotate(-90) scale(357.778 332.762)">
<stop stop-color="#FFDD55"/>
<stop offset="0.1" stop-color="#FFDD55"/>
<stop offset="0.5" stop-color="#FF543E"/>
<stop offset="1" stop-color="#C837AB"/>
</radialGradient>
<radialGradient id="paint1_radial_141_33" cx="0" cy="0" r="1" gradientUnits="userSpaceOnUse" gradientTransform="translate(-60.4689 26.0047) rotate(78.681) scale(159.929 659.231)">
<stop stop-color="#3771C8"/>
<stop offset="0.128" stop-color="#3771C8"/>
<stop offset="1" stop-color="#6600FF" stop-opacity="0"/>
</radialGradient>
<clipPath id="clip0_141_33">
<rect width="361" height="361" fill="white"/>
</clipPath>
</defs>
</svg>
