<svg width="361" height="361" viewBox="0 0 361 361" fill="none" xmlns="http://www.w3.org/2000/svg">
<path d="M327.156 8.46102H33.8438C27.1887 8.39329 20.7786 10.9684 16.0199 15.6213C11.2613 20.2742 8.54276 26.6249 8.46094 33.2798V327.777C8.55756 334.422 11.2826 340.758 16.0396 345.399C20.7966 350.04 27.1983 352.607 33.8438 352.539H327.156C333.812 352.592 340.218 350.008 344.974 345.352C349.73 340.696 352.45 334.347 352.539 327.692V33.1952C352.42 26.5598 349.688 20.2394 344.934 15.6079C340.181 10.9763 333.792 8.40794 327.156 8.46102Z" fill="#0076B2"/>
<path d="M59.3957 137.434H110.472V301.773H59.3957V137.434ZM84.9478 55.6448C90.8059 55.6448 96.5325 57.3823 101.403 60.6375C106.273 63.8927 110.069 68.5193 112.31 73.9321C114.55 79.3448 115.135 85.3005 113.99 91.0457C112.845 96.7909 110.022 102.067 105.878 106.208C101.733 110.348 96.454 113.166 90.7077 114.306C84.9615 115.445 79.0063 114.855 73.5957 112.609C68.1851 110.363 63.5621 106.563 60.3115 101.69C57.061 96.8162 55.3289 91.088 55.3345 85.2299C55.342 77.3808 58.4652 69.8558 64.018 64.3083C69.5707 58.7609 77.0987 55.6448 84.9478 55.6448ZM142.51 137.434H191.471V159.996H192.148C198.973 147.079 215.613 133.457 240.46 133.457C292.184 133.344 301.773 167.386 301.773 211.523V301.773H250.698V221.818C250.698 202.78 250.359 178.272 224.158 178.272C197.958 178.272 193.502 199.029 193.502 220.577V301.773H142.51V137.434Z" fill="white"/>
</svg>
