<svg width="361" height="361" viewBox="0 0 361 361" fill="none" xmlns="http://www.w3.org/2000/svg">
<g clip-path="url(#clip0_141_50)">
<path d="M180.5 0C80.8132 0 0 80.8146 0 180.5C0 280.192 80.8146 361 180.5 361C280.194 361 361 280.192 361 180.5C361 80.8217 280.194 0.00987109 180.497 0.00987109L180.5 0ZM263.275 260.335C260.041 265.637 253.1 267.318 247.798 264.063C205.419 238.177 152.07 232.313 89.2403 246.669C86.3309 247.331 83.2774 246.811 80.7514 245.222C78.2254 243.634 76.4338 241.107 75.7705 238.198C75.4402 236.758 75.3971 235.267 75.6437 233.81C75.8903 232.353 76.4218 230.959 77.2076 229.708C77.9935 228.457 79.0183 227.373 80.2236 226.518C81.4288 225.663 82.7907 225.055 84.2315 224.727C152.991 209.018 211.968 215.781 259.546 244.858C264.848 248.113 266.529 255.032 263.275 260.335ZM285.368 211.186C281.292 217.807 272.628 219.898 266.012 215.824C217.494 186.002 143.536 177.365 86.1493 194.785C78.7065 197.033 70.8463 192.839 68.5872 185.409C66.345 177.966 70.5417 170.12 77.9718 167.858C143.523 147.966 225.016 157.602 280.734 191.84C287.35 195.916 289.442 204.578 285.368 211.186ZM287.264 160.008C229.09 125.453 133.11 122.275 77.5685 139.134C68.6492 141.839 59.2167 136.803 56.5148 127.884C53.8116 118.961 58.8416 109.535 67.7679 106.824C131.525 87.4678 237.518 91.2089 304.494 130.97C312.534 135.73 315.163 146.092 310.399 154.103C305.658 162.127 295.268 164.771 287.273 160.008H287.264Z" fill="#1ED760"/>
</g>
<defs>
<clipPath id="clip0_141_50">
<rect width="361" height="361" fill="white"/>
</clipPath>
</defs>
</svg>
