<svg width="357" height="361" viewBox="0 0 357 361" fill="none" xmlns="http://www.w3.org/2000/svg">
<g clip-path="url(#clip0_141_46)">
<path d="M178.192 0C84.2576 0 7.30734 73.053 0 165.884L95.8378 205.851C104.206 200.06 114.145 196.964 124.322 196.978C125.274 196.978 126.213 197.004 127.139 197.056L169.765 134.738V133.865C169.765 96.3675 200.012 65.8525 237.194 65.8525C274.375 65.8525 304.623 96.3675 304.623 133.865C304.623 171.363 274.375 201.89 237.194 201.89C236.678 201.89 236.176 201.877 235.663 201.865L174.871 245.598C174.91 246.41 174.936 247.22 174.936 248.017C174.936 276.178 152.228 299.081 124.322 299.081C99.8261 299.081 79.3307 281.438 74.6995 258.086L6.14988 229.498C27.3788 305.201 96.3384 360.702 178.192 360.702C276.95 360.702 357 279.946 357 180.351C357 80.7441 276.95 0 178.192 0ZM112.053 273.652L90.0909 264.497C93.9775 272.675 100.719 279.516 109.66 283.272C128.984 291.398 151.268 282.153 159.322 262.645C163.221 253.265 163.244 242.723 159.387 233.326C155.526 223.862 148.232 216.48 138.879 212.545C129.577 208.65 119.619 208.79 110.869 212.122L133.565 221.586C147.82 227.579 154.561 244.089 148.618 258.466C142.687 272.842 126.308 279.645 112.053 273.652ZM282.126 133.865C282.126 108.881 261.965 88.5384 237.199 88.5384C212.419 88.5384 192.258 108.881 192.258 133.865C192.258 158.85 212.419 179.181 237.199 179.181C261.965 179.181 282.126 158.851 282.126 133.865ZM203.516 133.789C203.516 114.989 218.633 99.7517 237.264 99.7517C255.906 99.7517 271.023 114.989 271.023 133.789C271.023 152.589 255.906 167.827 237.263 167.827C218.633 167.827 203.515 152.589 203.515 133.79" fill="#1A1918"/>
</g>
<defs>
<clipPath id="clip0_141_46">
<rect width="357" height="361" fill="white"/>
</clipPath>
</defs>
</svg>
