<svg width="361" height="413" viewBox="0 0 361 413" fill="none" xmlns="http://www.w3.org/2000/svg">
<path d="M51.5714 25.8125C23.1266 25.8125 0 48.9631 0 77.4375V335.562C0 364.037 23.1266 387.188 51.5714 387.188H309.429C337.873 387.188 361 364.037 361 335.562V77.4375C361 48.9631 337.873 25.8125 309.429 25.8125H51.5714ZM290.976 93.5703L207.333 189.238L305.722 319.43H228.687L168.413 240.46L99.3556 319.43H61.0799L150.524 217.067L56.1645 93.5703H135.133L189.686 165.765L252.7 93.5703H290.976ZM260.516 296.521L123.61 115.269H100.806L239.243 296.521H260.436H260.516Z" fill="black"/>
</svg>
