<svg width="513" height="361" viewBox="0 0 513 361" fill="none" xmlns="http://www.w3.org/2000/svg">
<path d="M501.67 56.306C498.728 45.4229 492.988 35.5012 485.023 27.5288C477.057 19.5564 467.144 13.8115 456.27 10.8661C416.46 0 256.24 0 256.24 0C256.24 0 96.0115 0.32891 56.2019 11.195C45.3277 14.1406 35.4143 19.8858 27.4488 27.8586C19.4832 35.8314 13.7436 45.7535 10.8014 56.6369C-1.24003 127.429 -5.91114 235.3 11.1321 303.26C14.0746 314.143 19.8143 324.065 27.7798 332.037C35.7453 340.01 45.6586 345.755 56.5326 348.7C96.3422 359.566 256.567 359.566 256.567 359.566C256.567 359.566 416.789 359.566 456.596 348.7C467.471 345.755 477.384 340.01 485.35 332.038C493.316 324.065 499.056 314.143 501.999 303.26C514.7 232.368 518.613 124.563 501.67 56.306Z" fill="#FF0000"/>
<path d="M205.242 256.832L338.157 179.782L205.242 102.733V256.832Z" fill="white"/>
</svg>
